<?xml version="1.0" encoding="UTF-8" standalone="no"?>
<!-- Created with Inkscape (http://www.inkscape.org/) -->

<svg
   version="1.1"
   id="svg373"
   width="512"
   height="512"
   viewBox="0 0 512 512"
   sodipodi:docname="espectaculares.svg"
   inkscape:version="1.2.2 (732a01da63, 2022-12-09)"
   xml:space="preserve"
   xmlns:inkscape="http://www.inkscape.org/namespaces/inkscape"
   xmlns:sodipodi="http://sodipodi.sourceforge.net/DTD/sodipodi-0.dtd"
   xmlns="http://www.w3.org/2000/svg"
   xmlns:svg="http://www.w3.org/2000/svg"><defs
     id="defs377" /><sodipodi:namedview
     id="namedview375"
     pagecolor="#ffffff"
     bordercolor="#000000"
     borderopacity="0.25"
     inkscape:showpageshadow="2"
     inkscape:pageopacity="0.0"
     inkscape:pagecheckerboard="0"
     inkscape:deskcolor="#d1d1d1"
     showgrid="false"
     inkscape:zoom="0.85644531"
     inkscape:cx="234.69099"
     inkscape:cy="311.75371"
     inkscape:window-width="1920"
     inkscape:window-height="1027"
     inkscape:window-x="1912"
     inkscape:window-y="-8"
     inkscape:window-maximized="1"
     inkscape:current-layer="g379"
     showguides="true"><sodipodi:guide
       position="-477.5553,420.92588"
       orientation="0,-1"
       id="guide4857"
       inkscape:locked="false" /><sodipodi:guide
       position="85.236032,415.0878"
       orientation="1,0"
       id="guide4859"
       inkscape:locked="false" /><sodipodi:guide
       position="418.00684,293.65564"
       orientation="1,0"
       id="guide4861"
       inkscape:locked="false" /><sodipodi:guide
       position="446.02965,90.490308"
       orientation="0,-1"
       id="guide4863"
       inkscape:locked="false" /></sodipodi:namedview><g
     inkscape:groupmode="layer"
     inkscape:label="Image"
     id="g379"><ellipse
       style="fill:#aa0000;stroke-width:1.22329;fill-opacity:1"
       id="path589"
       cx="257.1785"
       cy="256.24875"
       rx="255.52724"
       ry="241.38741" /><path
       style="fill:#ffffff;stroke-width:0.646522"
       d="m 89.016282,389.54041 c -3.885478,-2.36911 -4.072152,-3.36365 -4.072152,-21.69506 0,-19.26881 0.254294,-20.33525 4.848917,-20.33525 4.532826,0 4.848916,1.21815 4.848916,18.68684 v 14.91251 H 199.37856 304.11516 V 319.04332 256.97718 H 199.37856 94.641963 v 36.76458 c 0,36.21477 -0.02004,36.79006 -1.339969,38.46807 -1.853111,2.35585 -5.164784,2.35585 -7.017895,0 -1.321461,-1.67996 -1.339969,-2.23406 -1.339969,-40.11648 0,-42.39061 -0.131534,-40.98399 4.072152,-43.54713 1.858132,-1.13297 3.309543,-1.26229 14.192098,-1.26445 l 12.12229,-0.002 v -14.87001 -14.87001 l -4.04076,-0.001 c -5.04204,-9.6e-4 -8.16512,-1.45823 -9.69683,-4.52436 -1.02648,-2.05478 -1.13041,-4.9674 -1.13041,-31.67959 0,-26.71219 0.10393,-29.6248 1.13041,-31.67959 1.97674,-3.95698 4.08661,-4.5235 16.85108,-4.52465 13.49875,-0.001 14.95764,0.48212 14.97924,4.96262 0.007,1.45658 -0.48574,2.44414 -1.6936,3.39424 -1.5555,1.22356 -2.56649,1.33997 -11.6374,1.33997 h -9.9339 v 26.50741 26.50741 h 52.04504 52.04504 l 0.0112,-4.04076 c 0.044,-15.83815 9.41116,-29.38668 23.57635,-34.10056 3.42915,-1.14114 4.21982,-1.66277 4.25016,-2.80392 0.0392,-1.47436 1.99369,-9.00459 2.83903,-10.93817 0.46854,-1.07176 -2.00992,-1.13141 -47.00674,-1.13141 -47.07689,0 -47.51659,-0.012 -49.20486,-1.33997 -1.70168,-1.33854 -2.3209,-4.49422 -1.2087,-6.15988 1.43849,-2.15434 2.838,-2.19798 70.48454,-2.19798 h 67.1852 l 2.18739,1.47408 c 1.20306,0.81074 2.551,2.19268 2.99543,3.07098 1.1656,2.30353 1.1656,61.01683 0,63.32036 -1.53927,3.042 -4.71827,4.54507 -9.61286,4.54507 h -4.43005 v 14.87001 14.87001 h 13.90023 13.90022 v -9.27437 c 0,-10.46701 0.38494,-11.41434 4.63799,-11.41434 4.77337,0 4.41333,-6.39944 4.41333,78.44172 v 76.07709 h 7.75826 7.75827 l 0.0206,-12.12229 c 0.0217,-12.76457 0.0883,-13.08224 3.19428,-15.22294 1.44105,-0.99322 4.15963,-1.10175 27.59673,-1.10175 15.32441,0 26.67896,0.25882 27.6563,0.63041 0.91196,0.34673 2.23902,1.5832 2.94903,2.74772 1.16193,1.90573 1.29117,3.26406 1.29334,13.59308 l 0.002,11.47577 h 7.435 7.43501 V 284.13184 187.1535 h -46.5496 -46.5496 v 11.86046 c 0,13.332 -0.22144,14.00043 -4.63799,14.00043 -4.23864,0 -4.41333,-0.63781 -4.41333,-16.11421 0,-11.79926 0.15646,-14.01442 1.10301,-15.61681 2.33931,-3.96013 0.44145,-3.82793 54.91888,-3.82528 48.13742,0.003 49.74895,0.0417 51.75431,1.26445 4.382,2.67186 4.07215,-5.34884 4.07215,105.4093 0,110.75813 0.30985,102.73743 -4.07215,105.40929 -2.03808,1.24269 -4.51291,1.26204 -161.43754,1.26204 -156.924632,0 -159.399459,-0.0193 -161.437538,-1.26204 z M 344.84607,371.73488 v -9.37457 h -3.23262 -3.23261 v 9.37457 9.37457 h 3.23261 3.23262 z m 20.68871,0 v -9.37457 h -5.49544 -5.49544 v 9.37457 9.37457 h 5.49544 5.49544 z m 16.16305,0 v -9.37457 h -3.23261 -3.23261 v 9.37457 9.37457 h 3.23261 3.23261 z M 133.4333,232.40934 v -14.87001 h -4.2024 -4.20239 v 14.87001 14.87001 h 4.20239 4.2024 z m 115.08095,0 v -14.87001 h -52.69156 -52.69156 v 14.87001 14.87001 h 52.69156 52.69156 z m 18.10263,0 v -14.87001 h -4.2024 -4.20239 v 14.87001 14.87001 h 4.20239 4.2024 z m 14.87001,-51.07526 V 154.82667 H 268.89284 256.2988 l -1.40479,2.74772 c -1.83728,3.59366 -3.1299,8.52678 -3.13947,11.98143 -0.0114,4.09693 -1.48115,7.12633 -3.68257,7.59017 -5.9321,1.24989 -7.79534,1.82313 -10.6844,3.28712 -4.50309,2.2819 -8.67313,6.70308 -10.98793,11.64969 -1.58711,3.39158 -2.03922,5.35208 -2.30363,9.98923 l -0.32895,5.76946 h 28.85991 28.85992 z M 115.57677,355.95353 c -3.00404,-1.83179 -3.47871,-4.10532 -3.47871,-16.662 0,-16.9519 0.54727,-17.66213 13.60952,-17.66213 h 7.85502 l 2.19818,2.19818 2.19817,2.19818 v 13.38301 13.38301 l -2.19817,2.19817 -2.19818,2.19818 -7.98455,-0.003 c -6.70692,-0.002 -8.30725,-0.19919 -10.00128,-1.23217 z m 12.68435,-16.54476 v -8.08153 h -3.23261 -3.23261 v 8.08153 8.08152 h 3.23261 3.23261 z m 24.42247,16.77156 c -0.96893,-0.52582 -2.05993,-1.51332 -2.42446,-2.19444 -0.88486,-1.65338 -0.88228,-27.50569 0.003,-29.15968 1.32563,-2.47757 4.01231,-3.19681 11.94118,-3.19681 7.92886,0 10.61554,0.71924 11.94149,3.19681 0.8876,1.65849 0.8876,27.50662 0,29.16512 -1.33754,2.49922 -3.9988,3.1983 -12.07102,3.17091 -5.46598,-0.0186 -8.12818,-0.29692 -9.39042,-0.98191 z m 13.07582,-16.77156 v -8.08153 h -3.55587 -3.55588 v 8.08153 8.08152 h 3.55588 3.55587 z m 22.88689,15.58118 -2.19818,-2.19817 v -13.38301 -13.38301 l 2.19818,-2.19818 2.19817,-2.19818 h 7.85503 c 13.07841,0 13.60951,0.69383 13.60951,17.77937 0,17.08553 -0.5311,17.77936 -13.60951,17.77936 h -7.85503 z m 13.96488,-15.58118 v -8.08153 h -3.23262 -3.23261 v 8.08153 8.08152 h 3.23261 3.23262 z m 24.8911,17.19378 c -0.71117,-0.30517 -1.87491,-1.2016 -2.58609,-1.99208 -1.20788,-1.34257 -1.29304,-2.34732 -1.29304,-15.25489 v -13.81766 l 1.79263,-1.79262 c 1.78787,-1.78788 1.81655,-1.79263 10.81455,-1.79263 8.998,0 9.02668,0.005 10.81455,1.79263 l 1.79263,1.79262 v 13.87085 13.87084 l -1.79078,1.79262 c -1.75073,1.75253 -1.97496,1.79591 -10.0211,1.9389 -4.52667,0.0805 -8.81217,-0.10342 -9.52335,-0.40858 z m 11.96066,-17.19378 v -8.08153 h -3.23261 -3.23261 v 8.08153 8.08152 h 3.23261 3.23261 z m 24.16742,16.54476 c -3.00404,-1.83179 -3.47871,-4.10532 -3.47871,-16.662 0,-16.9519 0.54727,-17.66213 13.60952,-17.66213 h 7.85502 l 2.19818,2.19818 2.19817,2.19818 v 13.38301 13.38301 l -2.19817,2.19817 -2.19818,2.19818 -7.98455,-0.003 c -6.70692,-0.002 -8.30725,-0.19919 -10.00128,-1.23217 z m 12.68435,-16.54476 v -8.08153 h -3.23261 -3.23261 v 8.08153 8.08152 h 3.23261 3.23261 z m 55.58314,-2.07153 c -3.13707,-2.16214 -3.17372,-2.35472 -3.17372,-16.67762 0,-14.3229 0.0367,-14.51548 3.17372,-16.67761 1.28942,-0.88871 3.10217,-1.10128 9.37457,-1.09933 12.64584,0.004 13.26427,0.83275 13.26427,17.77694 0,16.94419 -0.61843,17.77301 -13.26427,17.77694 -6.2724,0.002 -8.08515,-0.21062 -9.37457,-1.09932 z m 12.94822,-16.67762 v -8.08153 h -3.23262 -3.23261 v 8.08153 8.08153 h 3.23261 3.23262 z m 24.81877,17.14573 c -0.75096,-0.30342 -1.98744,-1.34249 -2.74772,-2.30904 -1.30983,-1.66518 -1.38234,-2.45142 -1.38234,-14.98853 v -13.23117 l 2.19817,-2.19817 2.19818,-2.19818 h 7.78083 c 8.94245,0 10.60467,0.45328 12.38795,3.37812 1.17063,1.92002 1.29092,3.26199 1.29092,14.40124 0,17.29933 -0.37846,17.81064 -13.12933,17.73838 -3.9772,-0.0226 -7.84571,-0.28923 -8.59666,-0.59265 z m 12.03299,-17.14573 v -8.08153 h -3.23261 -3.23261 v 8.08153 8.08153 h 3.23261 3.23261 z m -267.16511,-14.49236 -2.1114,-1.88518 -0.19938,-12.59199 c -0.29656,-18.72991 0.25928,-19.47403 14.25736,-19.08653 l 7.70965,0.21342 1.885,2.1114 1.885,2.11139 v 12.95235 c 0,18.06611 0.004,18.06032 -13.27392,18.06032 -7.96905,0 -8.05978,-0.0168 -10.15231,-1.88518 z m 13.7284,-15.89418 v -8.08153 h -3.23261 -3.23261 v 8.08153 8.08152 h 3.23261 3.23261 z m 23.22507,15.88952 -1.88984,-1.88983 v -13.829 -13.82901 l 1.98202,-1.89889 1.98202,-1.89889 h 8.64315 8.64314 l 1.98202,1.89889 1.98202,1.89889 v 13.82901 13.829 l -1.88984,1.88983 -1.88983,1.88984 h -8.82751 -8.82752 z m 14.13149,-15.72789 -0.18153,-7.9199 h -3.23261 -3.23262 l -0.18153,7.9199 -0.18153,7.91989 h 3.59568 3.59567 z m 24.13421,16.7155 c -2.98578,-1.6549 -3.2564,-3.05943 -3.28086,-17.02856 l -0.0229,-13.08188 1.885,-2.11139 1.885,-2.1114 7.70965,-0.21342 c 13.99808,-0.3875 14.55392,0.35662 14.25736,19.08653 l -0.19938,12.59199 -2.1114,1.88518 c -2.10169,1.87651 -2.14925,1.88507 -10.34436,1.86227 -5.58651,-0.0155 -8.72963,-0.2982 -9.7781,-0.87932 z m 12.85929,-16.87713 v -8.08153 h -3.23262 -3.23261 v 8.08153 8.08152 h 3.23261 3.23262 z m 22.88688,15.58118 -2.19817,-2.19817 0.01,-12.83347 c 0.0106,-14.26161 0.26361,-15.38339 3.8786,-17.19649 2.91021,-1.45961 14.43409,-1.59828 17.74819,-0.21356 3.83076,1.60059 4.22457,3.23561 4.22457,17.53957 v 12.70395 l -2.19818,2.19817 -2.19817,2.19818 h -8.53409 -8.5341 l -2.19817,-2.19818 z m 13.96488,-15.58118 v -8.08153 h -3.23261 -3.23261 v 8.08153 8.08152 h 3.23261 3.23261 z m 23.12337,15.89418 -2.1114,-1.88518 -0.19938,-12.59199 c -0.29656,-18.72991 0.25928,-19.47403 14.25736,-19.08653 l 7.70965,0.21342 1.885,2.1114 1.885,2.11139 v 12.95235 c 0,18.06611 0.004,18.06032 -13.27393,18.06032 -7.96904,0 -8.05977,-0.0169 -10.1523,-1.88518 z m 13.7284,-15.89418 v -8.08153 h -3.23261 -3.23261 v 8.08153 8.08152 h 3.23261 3.23261 z m 55.58314,-2.71805 c -3.13707,-2.16214 -3.17372,-2.35472 -3.17372,-16.67762 0,-14.3229 0.0367,-14.51548 3.17372,-16.67762 1.28942,-0.8887 3.10217,-1.10128 9.37457,-1.09932 12.64584,0.004 13.26427,0.83275 13.26427,17.77694 0,16.94419 -0.61843,17.77301 -13.26427,17.77694 -6.2724,0.002 -8.08515,-0.21062 -9.37457,-1.09932 z m 12.94822,-16.67762 v -8.08153 h -3.23262 -3.23261 v 8.08153 8.08153 h 3.23261 3.23262 z m 24.81877,17.14572 c -0.75096,-0.30342 -1.98744,-1.34248 -2.74772,-2.30903 -1.30983,-1.66518 -1.38234,-2.45143 -1.38234,-14.98853 V 257.4944 l 2.19817,-2.19818 2.19818,-2.19817 h 7.78083 c 8.94245,0 10.60467,0.45328 12.38795,3.37812 1.17063,1.92002 1.29092,3.26199 1.29092,14.40124 0,17.29932 -0.37846,17.81064 -13.12933,17.73838 -3.9772,-0.0226 -7.84571,-0.28924 -8.59666,-0.59266 z m 12.03299,-17.14572 v -8.08153 h -3.23261 -3.23261 v 8.08153 8.08153 h 3.23261 3.23261 z m -49.79998,-33.1046 c -3.13707,-2.16213 -3.17372,-2.35471 -3.17372,-16.67761 0,-14.3229 0.0367,-14.51548 3.17372,-16.67762 1.28942,-0.8887 3.10217,-1.10128 9.37457,-1.09932 12.64584,0.004 13.26427,0.83275 13.26427,17.77694 0,16.94419 -0.61843,17.77301 -13.26427,17.77694 -6.2724,0.002 -8.08515,-0.21062 -9.37457,-1.09933 z m 12.94822,-16.67761 v -8.08153 h -3.23262 -3.23261 v 8.08153 8.08153 h 3.23261 3.23262 z m 24.81877,17.14572 c -0.75096,-0.30342 -1.98744,-1.34248 -2.74772,-2.30903 -1.30983,-1.66518 -1.38234,-2.45143 -1.38234,-14.98853 v -13.23117 l 2.19817,-2.19818 2.19818,-2.19817 h 7.78083 c 8.94245,0 10.60467,0.45327 12.38795,3.37812 1.17063,1.92002 1.29092,3.26198 1.29092,14.40124 0,17.29932 -0.37846,17.81064 -13.12933,17.73838 -3.9772,-0.0226 -7.84571,-0.28924 -8.59666,-0.59266 z m 12.03299,-17.14572 v -8.08153 h -3.23261 -3.23261 v 8.08153 8.08153 h 3.23261 3.23261 z M 128.03806,191.78916 c -1.44601,-1.59783 -1.38243,-5.44626 0.11234,-6.799 1.03513,-0.93679 3.23595,-1.06999 17.67915,-1.06999 18.49329,0 18.63681,0.0357 18.63681,4.63799 0,4.33211 -0.34706,4.41332 -18.86148,4.41332 -15.16079,0 -16.58349,-0.0958 -17.56682,-1.18232 z m 0,-16.80958 c -1.44601,-1.59783 -1.38243,-5.44626 0.11234,-6.799 1.06449,-0.96336 4.17941,-1.06999 31.25612,-1.06999 28.31394,0 30.13642,0.0692 31.14379,1.18232 1.44601,1.59783 1.38243,5.44627 -0.11233,6.79901 -1.0645,0.96335 -4.17942,1.06998 -31.25613,1.06998 -28.31393,0 -30.13642,-0.0692 -31.14379,-1.18232 z"
       id="path3200" /></g></svg>
