<?xml version="1.0" encoding="UTF-8" standalone="no"?>
<!-- Created with Inkscape (http://www.inkscape.org/) -->

<svg
   version="1.1"
   id="svg59"
   width="512"
   height="512"
   viewBox="0 0 512 512"
   sodipodi:docname="contacto.svg"
   inkscape:version="1.2.2 (732a01da63, 2022-12-09)"
   xml:space="preserve"
   xmlns:inkscape="http://www.inkscape.org/namespaces/inkscape"
   xmlns:sodipodi="http://sodipodi.sourceforge.net/DTD/sodipodi-0.dtd"
   xmlns="http://www.w3.org/2000/svg"
   xmlns:svg="http://www.w3.org/2000/svg"><defs
     id="defs63" /><sodipodi:namedview
     id="namedview61"
     pagecolor="#ffffff"
     bordercolor="#000000"
     borderopacity="0.25"
     inkscape:showpageshadow="2"
     inkscape:pageopacity="0.0"
     inkscape:pagecheckerboard="0"
     inkscape:deskcolor="#d1d1d1"
     showgrid="false"
     inkscape:zoom="0.8046875"
     inkscape:cx="273.39806"
     inkscape:cy="350.4466"
     inkscape:window-width="1920"
     inkscape:window-height="1027"
     inkscape:window-x="1912"
     inkscape:window-y="-8"
     inkscape:window-maximized="1"
     inkscape:current-layer="g471" /><g
     id="g471"
     style="fill:#0057a8;fill-opacity:1;stroke:none"
     transform="translate(97.398058,137.00971)"><path
       style="fill:#0057a8;fill-opacity:1;stroke:none"
       d="m 248.72187,382.99272 -8.97915,-9.25 9.25,8.97915 c 8.59119,8.33963 9.7052,9.52085 8.97915,9.52085 -0.14897,0 -4.31147,-4.1625 -9.25,-9.25 z m 116.02085,-4.75 c 0.99549,-1.1 2.03498,-2 2.30998,-2 0.275,0 -0.31449,0.9 -1.30998,2 -0.99549,1.1 -2.03498,2 -2.30998,2 -0.275,0 0.31449,-0.9 1.30998,-2 z m -101.52208,-11.75 -8.47792,-8.75 8.75,8.47792 c 4.8125,4.66286 8.75,8.60036 8.75,8.75 0,0.72761 -1.14804,-0.35118 -9.02208,-8.47792 z m 34.49078,1.5 -5.9687,-6.25 6.25,5.9687 c 5.80572,5.54441 6.7076,6.5313 5.9687,6.5313 -0.15472,0 -2.96722,-2.8125 -6.25,-6.25 z m 50.5313,-4.12756 c 0,-0.20765 0.7875,-0.99515 1.75,-1.75 1.58606,-1.24387 1.62143,-1.2085 0.37756,0.37756 -1.30637,1.66575 -2.12756,2.19548 -2.12756,1.37244 z m -64.53759,-9.87244 -4.96241,-5.25 5.25,4.96241 c 4.87839,4.61116 5.7086,5.53759 4.96241,5.53759 -0.15818,0 -2.52068,-2.3625 -5.25,-5.25 z m 29.53759,-1.25 c -2.42903,-2.475 -4.19142,-4.5 -3.91642,-4.5 0.275,0 2.48739,2.025 4.91642,4.5 2.42903,2.475 4.19142,4.5 3.91642,4.5 -0.275,0 -2.48739,-2.025 -4.91642,-4.5 z m -93.59501,0.25 -1.90499,-2.25 2.25,1.90499 c 2.11444,1.79022 2.70524,2.59501 1.90499,2.59501 -0.18976,0 -1.20226,-1.0125 -2.25,-2.25 z m 81.56612,-12.5 -6.47111,-6.75 6.75,6.47111 c 3.7125,3.55911 6.75,6.59661 6.75,6.75 0,0.73602 -1.01824,-0.20142 -7.02889,-6.47111 z m 81.02889,1.37244 c 0,-0.20765 0.7875,-0.99515 1.75,-1.75 1.58606,-1.24387 1.62143,-1.2085 0.37756,0.37756 -1.30637,1.66575 -2.12756,2.19548 -2.12756,1.37244 z m -146.07569,-3.37244 -2.42431,-2.75 2.75,2.42431 c 2.57029,2.26589 3.20859,3.07569 2.42431,3.07569 -0.17912,0 -1.41662,-1.2375 -2.75,-2.75 z m 25.48068,-7.5 -1.90499,-2.25 2.25,1.90499 c 1.2375,1.04774 2.25,2.06024 2.25,2.25 0,0.80025 -0.80479,0.20945 -2.59501,-1.90499 z m -151.40499,-12.25 c -4.09747,-4.125 -7.22494,-7.5 -6.94994,-7.5 0.275,0 3.85247,3.375 7.94994,7.5 4.09747,4.125 7.22494,7.5 6.94994,7.5 -0.275,0 -3.85247,-3.375 -7.94994,-7.5 z m 167.92431,-2.25 -2.42431,-2.75 2.75,2.42431 c 2.57029,2.26589 3.20859,3.07569 2.42431,3.07569 -0.17912,0 -1.41662,-1.2375 -2.75,-2.75 z m 91.04153,-11 -5.46584,-5.75 5.75,5.46584 c 5.34193,5.07794 6.20809,6.03416 5.46584,6.03416 -0.15629,0 -2.74379,-2.5875 -5.75,-5.75 z m -243.49714,-2.5 -5.9687,-6.25 6.25,5.9687 c 3.4375,3.28278 6.25,6.09528 6.25,6.25 0,0.7389 -0.98689,-0.16298 -6.5313,-5.9687 z m 170.47747,-1.5 -3.44617,-3.75 3.75,3.44617 c 2.0625,1.89539 3.75,3.58289 3.75,3.75 0,0.76362 -0.84622,0.0442 -4.05383,-3.44617 z m 87.51624,-12.5 -4.96241,-5.25 5.25,4.96241 c 4.87839,4.61116 5.7086,5.53759 4.96241,5.53759 -0.15818,0 -2.52068,-2.3625 -5.25,-5.25 z m -70.00946,-1 -3.95295,-4.25 4.25,3.95295 c 3.95246,3.6762 4.70953,4.54705 3.95295,4.54705 -0.16338,0 -2.07588,-1.9125 -4.25,-4.25 z m -154.29506,-68.75 c 0,-1.375 0.22698,-1.9375 0.50439,-1.25 0.27741,0.6875 0.27741,1.8125 0,2.5 -0.27741,0.6875 -0.50439,0.125 -0.50439,-1.25 z m 108.71455,0.25 c -1.24387,-1.58606 -1.2085,-1.62143 0.37756,-0.37756 1.66575,1.30637 2.19548,2.12756 1.37244,2.12756 -0.20765,0 -0.99515,-0.7875 -1.75,-1.75 z m -86.79349,-0.83333 c 0.048,-1.16495 0.28494,-1.4019 0.60416,-0.60417 0.28887,0.72187 0.25335,1.58437 -0.0789,1.91667 -0.3323,0.33229 -0.56864,-0.25834 -0.52522,-1.3125 z m 102.79349,-14.16667 c -1.24387,-1.58606 -1.2085,-1.62143 0.37756,-0.37756 1.66575,1.30637 2.19548,2.12756 1.37244,2.12756 -0.20765,0 -0.99515,-0.7875 -1.75,-1.75 z m -24.05994,-62.93311 c 0.72187,-0.28887 1.58438,-0.25335 1.91667,0.0789 0.33229,0.33229 -0.25834,0.56864 -1.3125,0.52522 -1.16495,-0.048 -1.4019,-0.28494 -0.60417,-0.60416 z m 221,-1 c 0.72187,-0.28887 1.58438,-0.25335 1.91667,0.0789 0.33229,0.33229 -0.25834,0.56864 -1.3125,0.52522 -1.16495,-0.048 -1.4019,-0.28494 -0.60417,-0.60416 z m -223,-21 c 0.72187,-0.28887 1.58438,-0.25335 1.91667,0.0789 0.33229,0.3323 -0.25834,0.56864 -1.3125,0.52522 -1.16495,-0.048 -1.4019,-0.28494 -0.60417,-0.60416 z m 9,0 c 0.72187,-0.28887 1.58438,-0.25335 1.91667,0.0789 0.33229,0.3323 -0.25834,0.56864 -1.3125,0.52522 -1.16495,-0.048 -1.4019,-0.28494 -0.60417,-0.60416 z m 214,-1 c 0.72187,-0.28887 1.58438,-0.25335 1.91667,0.0789 0.33229,0.3323 -0.25834,0.56864 -1.3125,0.52522 -1.16495,-0.048 -1.4019,-0.28494 -0.60417,-0.60416 z M 3.742717,100.24272 c 0.9954863,-1.099998 2.0349751,-1.999998 2.3099751,-1.999998 0.275,0 -0.3144888,0.9 -1.3099751,1.999998 -0.9954863,1.1 -2.0349751,2 -2.3099751,2 -0.275,0 0.3144888,-0.9 1.3099751,-2 z"
       id="path485" /><path
       style="fill:#0057a8;fill-opacity:1;stroke:none"
       d="m 273.11516,376.49272 c -1.24387,-1.58606 -1.2085,-1.62143 0.37756,-0.37756 0.9625,0.75485 1.75,1.54235 1.75,1.75 0,0.82304 -0.82119,0.29331 -2.12756,-1.37244 z m 17,-16 c -1.24387,-1.58606 -1.2085,-1.62143 0.37756,-0.37756 1.66575,1.30637 2.19548,2.12756 1.37244,2.12756 -0.20765,0 -0.99515,-0.7875 -1.75,-1.75 z m 29,-2 c -1.24387,-1.58606 -1.2085,-1.62143 0.37756,-0.37756 0.9625,0.75485 1.75,1.54235 1.75,1.75 0,0.82304 -0.82119,0.29331 -2.12756,-1.37244 z m -96,-2 c -1.24387,-1.58606 -1.2085,-1.62143 0.37756,-0.37756 0.9625,0.75485 1.75,1.54235 1.75,1.75 0,0.82304 -0.82119,0.29331 -2.12756,-1.37244 z m 30,0 c -1.24387,-1.58606 -1.2085,-1.62143 0.37756,-0.37756 0.9625,0.75485 1.75,1.54235 1.75,1.75 0,0.82304 -0.82119,0.29331 -2.12756,-1.37244 z m 12,-22 c -1.24387,-1.58606 -1.2085,-1.62143 0.37756,-0.37756 1.66575,1.30637 2.19548,2.12756 1.37244,2.12756 -0.20765,0 -0.99515,-0.7875 -1.75,-1.75 z m 27.53255,-2.5 -1.90499,-2.25 2.25,1.90499 c 1.2375,1.04774 2.25,2.06024 2.25,2.25 0,0.80025 -0.80479,0.20945 -2.59501,-1.90499 z m 55.57293,-8.5 -8.47792,-8.75 8.75,8.47792 c 8.12674,7.87404 9.20553,9.02208 8.47792,9.02208 -0.14964,0 -4.08714,-3.9375 -8.75,-8.75 z M 27.492717,310.49442 c 9.2125,-0.16503 24.2875,-0.16503 33.5,0 9.2125,0.16503 1.675,0.30005 -16.75,0.30005 -18.425,0 -25.9625,-0.13502 -16.75,-0.30005 z m 275.187093,-2.5017 -2.93709,-3.25 3.25,2.93709 c 3.02946,2.73778 3.70965,3.56291 2.93709,3.56291 -0.1721,0 -1.6346,-1.4625 -3.25,-3.25 z m 189.04086,-82.75 c 0,-47.025 0.12229,-66.2625 0.27176,-42.75 0.14947,23.5125 0.14947,61.9875 0,85.5 -0.14947,23.5125 -0.27176,4.275 -0.27176,-42.75 z m -129.60551,73.25 c -1.24387,-1.58606 -1.2085,-1.62143 0.37756,-0.37756 0.9625,0.75485 1.75,1.54235 1.75,1.75 0,0.82304 -0.82119,0.29331 -2.12756,-1.37244 z m -244.46745,-3.5 -1.90499,-2.25 2.25,1.90499 c 2.11444,1.79022 2.70524,2.59501 1.90499,2.59501 -0.18976,0 -1.20226,-1.0125 -2.25,-2.25 z m -94.927164,-90.25 c 6.8e-5,-46.75 0.122441,-65.72876 0.271941,-42.17502 0.1495,23.55374 0.149445,61.80374 -1.23e-4,85 -0.149567,23.19626 -0.271886,3.92502 -0.271818,-42.82498 z m 285.394614,77.75 c -1.24387,-1.58606 -1.2085,-1.62143 0.37756,-0.37756 0.9625,0.75485 1.75,1.54235 1.75,1.75 0,0.82304 -0.82119,0.29331 -2.12756,-1.37244 z M 478.05522,140.55961 c 0.72187,-0.28887 1.58438,-0.25335 1.91667,0.0789 0.33229,0.33229 -0.25834,0.56864 -1.3125,0.52522 -1.16495,-0.048 -1.4019,-0.28494 -0.60417,-0.60416 z m -328.49485,-1.06603 c 11.99971,-0.15964 31.34971,-0.15944 43,4.3e-4 11.65029,0.15986 1.83235,0.29047 -21.81765,0.29023 -23.65,-2.3e-4 -33.18206,-0.13103 -21.18235,-0.29066 z m 111.93235,-19.94019 c 0.9625,-0.25152 2.5375,-0.25152 3.5,0 0.9625,0.25153 0.175,0.45733 -1.75,0.45733 -1.925,0 -2.7125,-0.2058 -1.75,-0.45733 z m 222.5625,-0.99378 c 0.72187,-0.28887 1.58438,-0.25335 1.91667,0.0789 0.33229,0.3323 -0.25834,0.56864 -1.3125,0.52522 -1.16495,-0.048 -1.4019,-0.28494 -0.60417,-0.60416 z"
       id="path483" /><path
       style="fill:#0057a8;fill-opacity:1;stroke:none"
       d="m 318.24272,401.86516 c 0,-0.20765 0.7875,-0.99515 1.75,-1.75 1.58606,-1.24387 1.62143,-1.2085 0.37756,0.37756 -1.30637,1.66575 -2.12756,2.19548 -2.12756,1.37244 z m -59.1875,-6.30555 c 0.72187,-0.28887 1.58438,-0.25335 1.91667,0.0789 0.33229,0.33229 -0.25834,0.56864 -1.3125,0.52522 -1.16495,-0.048 -1.4019,-0.28494 -0.60417,-0.60416 z m 17.05994,-16.06689 c -1.24387,-1.58606 -1.2085,-1.62143 0.37756,-0.37756 1.66575,1.30637 2.19548,2.12756 1.37244,2.12756 -0.20765,0 -0.99515,-0.7875 -1.75,-1.75 z m -26.46745,-26.5 -1.90499,-2.25 2.25,1.90499 c 2.11444,1.79022 2.70524,2.59501 1.90499,2.59501 -0.18976,0 -1.20226,-1.0125 -2.25,-2.25 z m 109.51932,-18.5 -2.42431,-2.75 2.75,2.42431 c 2.57029,2.26589 3.20859,3.07569 2.42431,3.07569 -0.17912,0 -1.41662,-1.2375 -2.75,-2.75 z m 28.15464,-1.83333 c 0.048,-1.16495 0.28494,-1.4019 0.60416,-0.60417 0.28887,0.72187 0.25335,1.58438 -0.0789,1.91667 -0.33229,0.33229 -0.56864,-0.25834 -0.52522,-1.3125 z m -98.20651,-4.16667 c -1.24387,-1.58606 -1.2085,-1.62143 0.37756,-0.37756 1.66575,1.30637 2.19548,2.12756 1.37244,2.12756 -0.20765,0 -0.99515,-0.7875 -1.75,-1.75 z m 18.53255,-15.5 -1.90499,-2.25 2.25,1.90499 c 1.2375,1.04774 2.25,2.06024 2.25,2.25 0,0.80025 -0.80479,0.20945 -2.59501,-1.90499 z m 28.54118,-1.5 -3.44617,-3.75 3.75,3.44617 c 2.0625,1.89539 3.75,3.58289 3.75,3.75 0,0.76362 -0.84622,0.0442 -4.05383,-3.44617 z m -247.073728,-15 c -1.243871,-1.58606 -1.208501,-1.62143 0.377555,-0.37756 0.9625,0.75485 1.75,1.54235 1.75,1.75 0,0.82304 -0.821186,0.29331 -2.127555,-1.37244 z m 24.051868,-6 -2.42431,-2.75 2.75,2.42431 c 2.57029,2.26589 3.20859,3.07569 2.42431,3.07569 -0.17912,0 -1.41662,-1.2375 -2.75,-2.75 z m 93.57569,-116.25 c 2.14824,-2.2 4.1309,-4 4.4059,-4 0.275,0 -1.25766,1.8 -3.4059,4 -2.14824,2.2 -4.1309,4 -4.4059,4 -0.275,0 1.25766,-1.8 3.4059,-4 z m 280.76903,-55.69299 c 0.97297,-0.25354 2.32297,-0.23687 3,0.037 0.67703,0.27393 -0.11903,0.48137 -1.76903,0.46099 -1.65,-0.0204 -2.20394,-0.2445 -1.23097,-0.49804 z"
       id="path481" /><path
       style="fill:#0057a8;fill-opacity:1;stroke:none"
       d="m 229.16703,362.49272 -2.42431,-2.75 2.75,2.42431 c 2.57029,2.26589 3.20859,3.07569 2.42431,3.07569 -0.17912,0 -1.41662,-1.2375 -2.75,-2.75 z m 119.94813,-8 c -1.24387,-1.58606 -1.2085,-1.62143 0.37756,-0.37756 1.66575,1.30637 2.19548,2.12756 1.37244,2.12756 -0.20765,0 -0.99515,-0.7875 -1.75,-1.75 z m -103.46745,-5.5 -1.90499,-2.25 2.25,1.90499 c 2.11444,1.79022 2.70524,2.59501 1.90499,2.59501 -0.18976,0 -1.20226,-1.0125 -2.25,-2.25 z m -31.32604,-6.33333 c 0.048,-1.16495 0.28494,-1.4019 0.60416,-0.60417 0.28887,0.72187 0.25335,1.58438 -0.0789,1.91667 -0.3323,0.33229 -0.56864,-0.25834 -0.52522,-1.3125 z m 56.32604,-2.66667 -1.90499,-2.25 2.25,1.90499 c 1.2375,1.04774 2.25,2.06024 2.25,2.25 0,0.80025 -0.80479,0.20945 -2.59501,-1.90499 z m 92.46745,-1.5 c -1.24387,-1.58606 -1.2085,-1.62143 0.37756,-0.37756 1.66575,1.30637 2.19548,2.12756 1.37244,2.12756 -0.20765,0 -0.99515,-0.7875 -1.75,-1.75 z m -77,-13 c -1.24387,-1.58606 -1.2085,-1.62143 0.37756,-0.37756 1.66575,1.30637 2.19548,2.12756 1.37244,2.12756 -0.20765,0 -0.99515,-0.7875 -1.75,-1.75 z m 26.56465,-7.5 -2.93709,-3.25 3.25,2.93709 c 1.7875,1.6154 3.25,3.0779 3.25,3.25 0,0.77256 -0.82513,0.0924 -3.56291,-2.93709 z m 17,-13 -2.93709,-3.25 3.25,2.93709 c 3.02946,2.73778 3.70965,3.56291 2.93709,3.56291 -0.1721,0 -1.6346,-1.4625 -3.25,-3.25 z m -237.032105,-5 -1.904988,-2.25 2.25,1.90499 c 2.114445,1.79022 2.705241,2.59501 1.904988,2.59501 -0.189757,0 -1.202257,-1.0125 -2.25,-2.25 z m 16.000005,-14 -1.90499,-2.25 2.25,1.90499 c 2.11444,1.79022 2.70524,2.59501 1.90499,2.59501 -0.18976,0 -1.20226,-1.0125 -2.25,-2.25 z m 109.59501,-67.12756 c 0,-0.20765 0.7875,-0.99515 1.75,-1.75 1.58606,-1.24387 1.62143,-1.2085 0.37756,0.37756 -1.30637,1.66575 -2.12756,2.19548 -2.12756,1.37244 z M 493.50647,118.52514 c 1.52006,-0.22986 3.77006,-0.22371 5,0.0136 1.22994,0.23736 -0.0138,0.42542 -2.76375,0.41792 -2.75,-0.008 -3.75631,-0.20172 -2.23625,-0.43157 z"
       id="path479" /><path
       style="fill:#0057a8;fill-opacity:1;stroke:none"
       d="m 307.11516,376.49272 c -1.24387,-1.58606 -1.2085,-1.62143 0.37756,-0.37756 1.66575,1.30637 2.19548,2.12756 1.37244,2.12756 -0.20765,0 -0.99515,-0.7875 -1.75,-1.75 z m -73.46745,-9.5 -1.90499,-2.25 2.25,1.90499 c 2.11444,1.79022 2.70524,2.59501 1.90499,2.59501 -0.18976,0 -1.20226,-1.0125 -2.25,-2.25 z m 139.34501,-0.41228 c 0.6875,-0.27741 1.8125,-0.27741 2.5,0 0.6875,0.27741 0.125,0.50439 -1.25,0.50439 -1.375,0 -1.9375,-0.22698 -1.25,-0.50439 z m -26.87756,-15.08772 c -1.24387,-1.58606 -1.2085,-1.62143 0.37756,-0.37756 1.66575,1.30637 2.19548,2.12756 1.37244,2.12756 -0.20765,0 -0.99515,-0.7875 -1.75,-1.75 z m -104,-6 c -1.24387,-1.58606 -1.2085,-1.62143 0.37756,-0.37756 0.9625,0.75485 1.75,1.54235 1.75,1.75 0,0.82304 -0.82119,0.29331 -2.12756,-1.37244 z m 32,-2 c -1.24387,-1.58606 -1.2085,-1.62143 0.37756,-0.37756 1.66575,1.30637 2.19548,2.12756 1.37244,2.12756 -0.20765,0 -0.99515,-0.7875 -1.75,-1.75 z m 180.44107,-11.99859 c 9.24743,-0.16519 24.09743,-0.16488 33,6.9e-4 8.90257,0.16557 1.33649,0.30072 -16.81351,0.30034 -18.15,-3.8e-4 -25.43392,-0.13584 -16.18649,-0.30103 z m -135.87642,-7.50141 -2.93709,-3.25 3.25,2.93709 c 3.02946,2.73778 3.70965,3.56291 2.93709,3.56291 -0.1721,0 -1.6346,-1.4625 -3.25,-3.25 z m -35.56465,-1.5 c -1.24387,-1.58606 -1.2085,-1.62143 0.37756,-0.37756 1.66575,1.30637 2.19548,2.12756 1.37244,2.12756 -0.20765,0 -0.99515,-0.7875 -1.75,-1.75 z m 174.87756,-11.99651 c 6.1875,-0.17544 16.3125,-0.17544 22.5,0 6.1875,0.17545 1.125,0.319 -11.25,0.319 -12.375,0 -17.4375,-0.14355 -11.25,-0.319 z m -361.345015,-6.50349 -1.904988,-2.25 2.25,1.90499 c 2.114445,1.79022 2.705241,2.59501 1.904988,2.59501 -0.189757,0 -1.202257,-1.0125 -2.25,-2.25 z m 227.032105,-5 -2.93709,-3.25 3.25,2.93709 c 1.7875,1.6154 3.25,3.0779 3.25,3.25 0,0.77256 -0.82513,0.0924 -3.56291,-2.93709 z m -219.51278,-17.5 -2.42431,-2.75 2.75,2.42431 c 2.57029,2.26589 3.20859,3.07569 2.42431,3.07569 -0.17912,0 -1.41662,-1.2375 -2.75,-2.75 z m 88.88819,-32.93311 c 0.72187,-0.28887 1.58437,-0.25335 1.91667,0.0789 0.33229,0.33229 -0.25834,0.56864 -1.3125,0.52522 -1.16495,-0.048 -1.4019,-0.28494 -0.60417,-0.60416 z m 85.59249,-48.56689 -1.90499,-2.25 2.25,1.90499 c 1.2375,1.04774 2.25,2.06024 2.25,2.25 0,0.80025 -0.80479,0.20945 -2.59501,-1.90499 z m -65.40499,-32.12756 c 0,-0.20765 0.7875,-0.99515 1.75,-1.75 1.58606,-1.24387 1.62143,-1.2085 0.37756,0.37756 -1.30637,1.66575 -2.12756,2.19548 -2.12756,1.37244 z m -26,-4 c 0,-0.20765 0.7875,-0.99515 1.75,-1.75 1.58606,-1.24387 1.62143,-1.2085 0.37756,0.37756 -1.30637,1.66575 -2.12756,2.19548 -2.12756,1.37244 z m 313.8125,-45.30555 c 0.72187,-0.28887 1.58438,-0.25335 1.91667,0.0789 0.33229,0.3323 -0.25834,0.56864 -1.3125,0.52522 -1.16495,-0.048 -1.4019,-0.28494 -0.60417,-0.60416 z"
       id="path477" /><path
       style="fill:#0057a8;fill-opacity:1;stroke:none"
       d="m 255.70513,388.99272 -4.96241,-5.25 5.25,4.96241 c 4.87839,4.61116 5.7086,5.53759 4.96241,5.53759 -0.15818,0 -2.52068,-2.3625 -5.25,-5.25 z m 77.78759,0.56067 c 0.9625,-0.25152 2.5375,-0.25152 3.5,0 0.9625,0.25153 0.175,0.45733 -1.75,0.45733 -1.925,0 -2.7125,-0.2058 -1.75,-0.45733 z m -91.7813,-14.56067 -5.9687,-6.25 6.25,5.9687 c 3.4375,3.28278 6.25,6.09528 6.25,6.25 0,0.7389 -0.98689,-0.16298 -6.5313,-5.9687 z m 61.45561,-2.5 -2.42431,-2.75 2.75,2.42431 c 2.57029,2.26589 3.20859,3.07569 2.42431,3.07569 -0.17912,0 -1.41662,-1.2375 -2.75,-2.75 z m 3.55484,-25.5 -8.97915,-9.25 9.25,8.97915 c 5.0875,4.93853 9.25,9.10103 9.25,9.25 0,0.72605 -1.18122,-0.38796 -9.52085,-8.97915 z m -88.07416,4 -1.90499,-2.25 2.25,1.90499 c 2.11444,1.79022 2.70524,2.59501 1.90499,2.59501 -0.18976,0 -1.20226,-1.0125 -2.25,-2.25 z m 60.54118,-2.5 -3.44617,-3.75 3.75,3.44617 c 2.0625,1.89539 3.75,3.58289 3.75,3.75 0,0.76362 -0.84622,0.0442 -4.05383,-3.44617 z m 54.03752,-10 -11.48369,-11.75 11.75,11.48369 c 6.4625,6.31603 11.75,11.60353 11.75,11.75 0,0.72017 -1.34959,-0.5696 -12.01631,-11.48369 z m -95.05938,3 -2.42431,-2.75 2.75,2.42431 c 2.57029,2.26589 3.20859,3.07569 2.42431,3.07569 -0.17912,0 -1.41662,-1.2375 -2.75,-2.75 z m 170.30769,-9.25 c 0,-1.925 0.2058,-2.7125 0.45733,-1.75 0.25152,0.9625 0.25152,2.5375 0,3.5 -0.25153,0.9625 -0.45733,0.175 -0.45733,-1.75 z m -147.35956,-2.75 c -1.24387,-1.58606 -1.2085,-1.62143 0.37756,-0.37756 0.9625,0.75485 1.75,1.54235 1.75,1.75 0,0.82304 -0.82119,0.29331 -2.12756,-1.37244 z m -144,-5 c -1.24387,-1.58606 -1.2085,-1.62143 0.37756,-0.37756 0.9625,0.75485 1.75,1.54235 1.75,1.75 0,0.82304 -0.82119,0.29331 -2.12756,-1.37244 z m 162.53255,-5.5 -1.90499,-2.25 2.25,1.90499 c 2.11444,1.79022 2.70524,2.59501 1.90499,2.59501 -0.18976,0 -1.20226,-1.0125 -2.25,-2.25 z m -176.40499,-8.25 c -2.42903,-2.475 -4.191419,-4.5 -3.916419,-4.5 0.275,0 2.487389,2.025 4.916419,4.5 2.42903,2.475 4.19142,4.5 3.91642,4.5 -0.275,0 -2.48739,-2.025 -4.91642,-4.5 z m 265.94617,-6.25 -3.44617,-3.75 3.75,3.44617 c 2.0625,1.89539 3.75,3.58289 3.75,3.75 0,0.76362 -0.84622,0.0442 -4.05383,-3.44617 z m -75.02186,-6 -2.42431,-2.75 2.75,2.42431 c 2.57029,2.26589 3.20859,3.07569 2.42431,3.07569 -0.17912,0 -1.41662,-1.2375 -2.75,-2.75 z m 22.52864,-6.5 -3.95295,-4.25 4.25,3.95295 c 3.95246,3.6762 4.70953,4.54705 3.95295,4.54705 -0.16338,0 -2.07588,-1.9125 -4.25,-4.25 z m 70.47136,1.5 -2.42431,-2.75 2.75,2.42431 c 2.57029,2.26589 3.20859,3.07569 2.42431,3.07569 -0.17912,0 -1.41662,-1.2375 -2.75,-2.75 z m -7.47136,-7.5 -3.95295,-4.25 4.25,3.95295 c 3.95246,3.6762 4.70953,4.54705 3.95295,4.54705 -0.16338,0 -2.07588,-1.9125 -4.25,-4.25 z m -281.506786,-10.5 -3.446167,-3.75 3.75,3.44617 c 3.490423,3.20761 4.209793,4.05383 3.446173,4.05383 -0.16711,0 -1.85461,-1.6875 -3.750006,-3.75 z m 268.926276,-1 c -1.24387,-1.58606 -1.2085,-1.62143 0.37756,-0.37756 1.66575,1.30637 2.19548,2.12756 1.37244,2.12756 -0.20765,0 -0.99515,-0.7875 -1.75,-1.75 z M 196.51175,248.54973 c 0.97297,-0.25354 2.32297,-0.23687 3,0.0371 0.67703,0.27393 -0.11903,0.48137 -1.76903,0.46099 -1.65,-0.0204 -2.20394,-0.2445 -1.23097,-0.49804 z m 73.60341,-28.05701 c -1.24387,-1.58606 -1.2085,-1.62143 0.37756,-0.37756 1.66575,1.30637 2.19548,2.12756 1.37244,2.12756 -0.20765,0 -0.99515,-0.7875 -1.75,-1.75 z m 12,-17 c -1.24387,-1.58606 -1.2085,-1.62143 0.37756,-0.37756 0.9625,0.75485 1.75,1.54235 1.75,1.75 0,0.82304 -0.82119,0.29331 -2.12756,-1.37244 z m -65.87244,-38.62756 c 0,-0.20765 0.7875,-0.99515 1.75,-1.75 1.58606,-1.24387 1.62143,-1.2085 0.37756,0.37756 -1.30637,1.66575 -2.12756,2.19548 -2.12756,1.37244 z m 148.07895,-14.20577 c 0.048,-1.16495 0.28494,-1.4019 0.60416,-0.60417 0.28887,0.72187 0.25335,1.58437 -0.0789,1.91667 -0.33229,0.33229 -0.56864,-0.25834 -0.52522,-1.3125 z m 124.67105,-11.07895 c 0.6875,-0.27741 1.8125,-0.27741 2.5,0 0.6875,0.27741 0.125,0.50439 -1.25,0.50439 -1.375,0 -1.9375,-0.22698 -1.25,-0.50439 z m -14.9375,-20.02083 c 0.72187,-0.28887 1.58438,-0.25335 1.91667,0.0789 0.33229,0.3323 -0.25834,0.56864 -1.3125,0.52522 -1.16495,-0.048 -1.4019,-0.28494 -0.60417,-0.60416 z M 14.055217,97.559608 c 0.721875,-0.288871 1.584375,-0.253344 1.916667,0.07895 0.332291,0.332292 -0.258334,0.568641 -1.3125,0.52522 -1.164943,-0.04798 -1.4019,-0.284941 -0.604167,-0.604167 z"
       id="path475" /><g
       id="g4229"
       transform="translate(1.2427151,-2.4854369)"><path
         style="fill:#afc9e2"
         d="m 235.47438,371.72572 c -1.24387,-1.58606 -1.2085,-1.62143 0.37756,-0.37756 1.66575,1.30637 2.19548,2.12756 1.37244,2.12756 -0.20765,0 -0.99515,-0.7875 -1.75,-1.75 z m -104.87244,-2.75 c 1.29175,-1.375 2.57363,-2.5 2.84863,-2.5 0.275,0 -0.55688,1.125 -1.84863,2.5 -1.29175,1.375 -2.57363,2.5 -2.84863,2.5 -0.275,0 0.55688,-1.125 1.84863,-2.5 z m 95.87244,-7.25 c -1.24387,-1.58606 -1.2085,-1.62143 0.37756,-0.37756 1.66575,1.30637 2.19548,2.12756 1.37244,2.12756 -0.20765,0 -0.99515,-0.7875 -1.75,-1.75 z m 14,-9 c -1.24387,-1.58606 -1.2085,-1.62143 0.37756,-0.37756 1.66575,1.30637 2.19548,2.12756 1.37244,2.12756 -0.20765,0 -0.99515,-0.7875 -1.75,-1.75 z m -23,-1 c -1.24387,-1.58606 -1.2085,-1.62143 0.37756,-0.37756 1.66575,1.30637 2.19548,2.12756 1.37244,2.12756 -0.20765,0 -0.99515,-0.7875 -1.75,-1.75 z m -8,-9 c -1.24387,-1.58606 -1.2085,-1.62143 0.37756,-0.37756 1.66575,1.30637 2.19548,2.12756 1.37244,2.12756 -0.20765,0 -0.99515,-0.7875 -1.75,-1.75 z m 22,0 c -1.24387,-1.58606 -1.2085,-1.62143 0.37756,-0.37756 1.66575,1.30637 2.19548,2.12756 1.37244,2.12756 -0.20765,0 -0.99515,-0.7875 -1.75,-1.75 z M 23.369854,335.75099 c 1.79735,-0.22256 4.49735,-0.21797 6,0.0102 1.50265,0.22818 0.0321,0.41027 -3.26791,0.40466 -3.3,-0.006 -4.52944,-0.1923 -2.73209,-0.41486 z m 177.104526,-3.02527 c -1.24387,-1.58606 -1.2085,-1.62143 0.37756,-0.37756 1.66575,1.30637 2.19548,2.12756 1.37244,2.12756 -0.20765,0 -0.99515,-0.7875 -1.75,-1.75 z m 22,0 c -1.24387,-1.58606 -1.2085,-1.62143 0.37756,-0.37756 1.66575,1.30637 2.19548,2.12756 1.37244,2.12756 -0.20765,0 -0.99515,-0.7875 -1.75,-1.75 z m -8,-9 c -1.24387,-1.58606 -1.2085,-1.62143 0.37756,-0.37756 0.9625,0.75485 1.75,1.54235 1.75,1.75 0,0.82304 -0.82119,0.29331 -2.12756,-1.37244 z M 36.414444,318.79261 c 0.72187,-0.28887 1.58437,-0.25335 1.91667,0.0789 0.33229,0.33229 -0.25834,0.56864 -1.3125,0.52522 -1.16495,-0.048 -1.4019,-0.28494 -0.60417,-0.60416 z m 169.059936,-5.06689 c -1.24387,-1.58606 -1.2085,-1.62143 0.37756,-0.37756 1.66575,1.30637 2.19548,2.12756 1.37244,2.12756 -0.20765,0 -0.99515,-0.7875 -1.75,-1.75 z m -103.71455,-9.25 c 0,-1.375 0.22698,-1.9375 0.50439,-1.25 0.27741,0.6875 0.27741,1.8125 0,2.5 -0.27741,0.6875 -0.50439,0.125 -0.50439,-1.25 z m -45.888856,-0.69299 c 0.97297,-0.25354 2.32297,-0.23687 3,0.0371 0.67703,0.27393 -0.11903,0.48137 -1.76903,0.46099 -1.65,-0.0204 -2.20394,-0.2445 -1.23097,-0.49804 z M 177.75983,289.47572 c 0,-1.375 0.22698,-1.9375 0.50439,-1.25 0.27741,0.6875 0.27741,1.8125 0,2.5 -0.27741,0.6875 -0.50439,0.125 -0.50439,-1.25 z m 220.25338,-19 c 0,-9.625 0.14998,-13.5625 0.3333,-8.75 0.18331,4.8125 0.18331,12.6875 0,17.5 -0.18332,4.8125 -0.3333,0.875 -0.3333,-8.75 z m -330.411266,9.62244 c 0,-0.20765 0.7875,-0.99515 1.75,-1.75 1.58606,-1.24387 1.62143,-1.2085 0.37756,0.37756 -1.30637,1.66575 -2.12756,2.19548 -2.12756,1.37244 z m -37,-4.12244 c 1.29175,-1.375 2.57363,-2.5 2.84863,-2.5 0.275,0 -0.55688,1.125 -1.84863,2.5 -1.29175,1.375 -2.57363,2.5 -2.84863,2.5 -0.275,0 0.55688,-1.125 1.84863,-2.5 z m -74.921053,-8.08333 c 0.04798,-1.16495 0.284941,-1.4019 0.604167,-0.60417 0.288871,0.72187 0.253344,1.58438 -0.07895,1.91667 -0.332292,0.33229 -0.568641,-0.25834 -0.52522,-1.3125 z M 178.03201,239.47572 c 0,-12.925 0.14251,-18.2125 0.3167,-11.75 0.17418,6.4625 0.17418,17.0375 0,23.5 -0.17419,6.4625 -0.3167,1.175 -0.3167,-11.75 z m -222.351119,19.41667 c 0.04798,-1.16495 0.284941,-1.4019 0.604167,-0.60417 0.288871,0.72187 0.253344,1.58438 -0.07895,1.91667 -0.332292,0.33229 -0.568641,-0.25834 -0.52522,-1.3125 z m 263.733549,-0.0998 c 0.72187,-0.28887 1.58438,-0.25335 1.91667,0.0789 0.33229,0.33229 -0.25834,0.56864 -1.3125,0.52522 -1.16495,-0.048 -1.4019,-0.28494 -0.60417,-0.60416 z M 96.887954,244.97572 c 0.008,-2.75 0.20172,-3.75631 0.43157,-2.23625 0.22986,1.52006 0.22371,3.77006 -0.0136,5 -0.23736,1.22994 -0.42542,-0.0138 -0.41792,-2.76375 z m 115.135776,-21.5 c 0,-11.275 0.14584,-15.8875 0.32409,-10.25 0.17825,5.6375 0.17825,14.8625 0,20.5 -0.17825,5.6375 -0.32409,1.025 -0.32409,-10.25 z m -179.016796,10.75 -1.90499,-2.25 2.25,1.90499 c 2.11444,1.79022 2.70524,2.59501 1.90499,2.59501 -0.18976,0 -1.20226,-1.0125 -2.25,-2.25 z m -62.40499,-10.12756 c 0,-0.20765 0.7875,-0.99515 1.75,-1.75 1.586056,-1.24387 1.621426,-1.2085 0.377555,0.37756 -1.306369,1.66575 -2.127555,2.19548 -2.127555,1.37244 z m 5,-5 c 0,-0.20765 0.7875,-0.99515 1.75,-1.75 1.586056,-1.24387 1.621426,-1.2085 0.377555,0.37756 -1.306369,1.66575 -2.127555,2.19548 -2.127555,1.37244 z m -18,-5 c 0,-0.20765 0.7875,-0.99515 1.75,-1.75 1.586056,-1.24387 1.621426,-1.2085 0.377555,0.37756 -1.306369,1.66575 -2.127555,2.19548 -2.127555,1.37244 z m 313.999996,-12 c 0,-0.20765 0.7875,-0.99515 1.75,-1.75 1.58606,-1.24387 1.62143,-1.2085 0.37756,0.37756 -1.30637,1.66575 -2.12756,2.19548 -2.12756,1.37244 z M 25.865694,198.75814 c 1.52006,-0.22986 3.77006,-0.22371 5,0.0136 1.22994,0.23736 -0.0137,0.42542 -2.76375,0.41792 -2.75,-0.008 -3.75631,-0.20172 -2.23625,-0.43157 z m 232.968246,-6.28242 c 0,-1.925 0.2058,-2.7125 0.45733,-1.75 0.25152,0.9625 0.25152,2.5375 0,3.5 -0.25153,0.9625 -0.45733,0.175 -0.45733,-1.75 z m 113.768,-2.37756 c 0,-0.20765 0.7875,-0.99515 1.75,-1.75 1.58606,-1.24387 1.62143,-1.2085 0.37756,0.37756 -1.30637,1.66575 -2.12756,2.19548 -2.12756,1.37244 z m 20.87244,-2.37244 c -1.24387,-1.58606 -1.2085,-1.62143 0.37756,-0.37756 0.9625,0.75485 1.75,1.54235 1.75,1.75 0,0.82304 -0.82119,0.29331 -2.12756,-1.37244 z m -181.52303,-9.25 c 0,-4.675 0.17226,-6.5875 0.3828,-4.25 0.21053,2.3375 0.21053,6.1625 0,8.5 -0.21054,2.3375 -0.3828,0.425 -0.3828,-4.25 z m -194.536906,4.31689 c 0.72187,-0.28887 1.58437,-0.25335 1.91667,0.0789 0.33229,0.33229 -0.25834,0.56864 -1.3125,0.52522 -1.16495,-0.048 -1.4019,-0.28494 -0.60417,-0.60416 z M 138.68089,166.89239 c 0.048,-1.16495 0.28494,-1.4019 0.60416,-0.60417 0.28887,0.72187 0.25335,1.58438 -0.0789,1.91667 -0.3323,0.33229 -0.56864,-0.25834 -0.52522,-1.3125 z M -89.398056,148.97572 c 1.291745,-1.375 2.573628,-2.5 2.848628,-2.5 0.275,0 -0.556883,1.125 -1.848628,2.5 -1.291745,1.375 -2.573628,2.5 -2.848628,2.5 -0.275,0 0.556883,-1.125 1.848628,-2.5 z m 16.8125,-8.18311 c 0.721875,-0.28887 1.584375,-0.25335 1.916667,0.0789 0.332291,0.33229 -0.258334,0.56864 -1.3125,0.52522 -1.164943,-0.048 -1.4019,-0.28494 -0.604167,-0.60416 z m 0,-39 c 0.721875,-0.28887 1.584375,-0.25335 1.916667,0.0789 0.332291,0.33229 -0.258334,0.56864 -1.3125,0.52522 -1.164943,-0.048 -1.4019,-0.28494 -0.604167,-0.60416 z m 184.999996,0 c 0.72187,-0.28887 1.58437,-0.25335 1.91667,0.0789 0.33229,0.33229 -0.25834,0.56864 -1.3125,0.52522 -1.16495,-0.048 -1.4019,-0.28494 -0.60417,-0.60416 z m 91,0 c 0.72187,-0.28887 1.58438,-0.25335 1.91667,0.0789 0.33229,0.33229 -0.25834,0.56864 -1.3125,0.52522 -1.16495,-0.048 -1.4019,-0.28494 -0.60417,-0.60416 z m 202.1875,-7.81689 c 1.29175,-1.375 2.57363,-2.5 2.84863,-2.5 0.275,0 -0.55688,1.125 -1.84863,2.5 -1.29175,1.375 -2.57363,2.5 -2.84863,2.5 -0.275,0 0.55688,-1.125 1.84863,-2.5 z m -495.595008,-0.75 -1.904988,-2.25 2.25,1.90499 c 2.114445,1.79022 2.705241,2.59501 1.904988,2.59501 -0.189757,0 -1.202257,-1.0125 -2.25,-2.25 z M 138.68089,75.89239 c 0.048,-1.16495 0.28494,-1.4019 0.60416,-0.60417 0.28887,0.72187 0.25335,1.58437 -0.0789,1.91667 -0.3323,0.33229 -0.56864,-0.25834 -0.52522,-1.3125 z m 39,0 c 0.048,-1.16495 0.28494,-1.4019 0.60416,-0.60417 0.28887,0.72187 0.25335,1.58437 -0.0789,1.91667 -0.33229,0.33229 -0.56864,-0.25834 -0.52522,-1.3125 z m 87.84536,-15.16667 -2.42431,-2.75 2.75,2.42431 c 2.57029,2.26589 3.20859,3.07569 2.42431,3.07569 -0.17912,0 -1.41662,-1.2375 -2.75,-2.75 z M 80.601944,50.09816 c 0,-0.20765 0.7875,-0.99515 1.75,-1.75 1.58606,-1.24387 1.62143,-1.2085 0.37756,0.37756 -1.30637,1.66575 -2.12756,2.19548 -2.12756,1.37244 z M 370.06085,-16.52428 c 0,-23.925 0.13052,-33.7125 0.29005,-21.75 0.15952,11.9625 0.15952,31.5375 0,43.5 -0.15953,11.9625 -0.29005,2.175 -0.29005,-21.75 z M 44.601944,23.09816 c 0,-0.20765 0.7875,-0.99515 1.75,-1.75 1.58606,-1.24387 1.62143,-1.2085 0.37756,0.37756 -1.30637,1.66575 -2.12756,2.19548 -2.12756,1.37244 z M 239.04582,-16.52428 c 0,-16.775 0.13684,-23.6375 0.3041,-15.25 0.16726,8.3875 0.16726,22.1125 0,30.5 -0.16726,8.3875 -0.3041,1.525 -0.3041,-15.25 z m -222.038886,11.75 -1.90499,-2.25 2.25,1.90499 c 2.11444,1.79022 2.70524,2.59501 1.90499,2.59501 -0.18976,0 -1.20226,-1.0125 -2.25,-2.25 z m 241.595006,1.87244 c 0,-0.20765 0.7875,-0.99515 1.75,-1.75 1.58606,-1.24387 1.62143,-1.2085 0.37756,0.37756 -1.30637,1.66575 -2.12756,2.19548 -2.12756,1.37244 z M 8.474384,-13.27428 c -1.24387,-1.58606 -1.2085,-1.62143 0.37756,-0.37756 0.9625,0.75485 1.75,1.54235 1.75,1.75 0,0.82304 -0.82119,0.29331 -2.12756,-1.37244 z M 338.60194,-33.90184 c 0,-0.20765 0.7875,-0.995151 1.75,-1.749995 1.58606,-1.243871 1.62143,-1.208501 0.37756,0.377555 -1.30637,1.66575 -2.12756,2.19548 -2.12756,1.37244 z m -66.12756,-5.37244 c -1.24387,-1.586056 -1.2085,-1.621426 0.37756,-0.377555 1.66575,1.306369 2.19548,2.127555 1.37244,2.127555 -0.20765,0 -0.99515,-0.7875 -1.75,-1.75 z m -291.872436,-0.627555 c 0,-0.207656 0.7875,-0.995156 1.75,-1.75 1.586056,-1.243871 1.621426,-1.208501 0.377555,0.377555 -1.306369,1.665748 -2.127555,2.195479 -2.127555,1.372445 z m 340.999996,-1 c 0,-0.207656 0.7875,-0.995156 1.75,-1.75 1.58606,-1.243871 1.62143,-1.208501 0.37756,0.377555 -1.30637,1.665748 -2.12756,2.195479 -2.12756,1.372445 z m -374.921049,-5.205778 c 0.04798,-1.164943 0.284941,-1.4019 0.604167,-0.604167 0.288871,0.721875 0.253344,1.584375 -0.07895,1.916667 -0.332292,0.332291 -0.568641,-0.258334 -0.52522,-1.3125 z m 0,-12 c 0.04798,-1.164943 0.284941,-1.4019 0.604167,-0.604167 0.288871,0.721875 0.253344,1.584375 -0.07895,1.916667 -0.332292,0.332291 -0.568641,-0.258334 -0.52522,-1.3125 z m 8.421053,-19.416667 c 0.995486,-1.1 2.034975,-2 2.309975,-2 0.275,0 -0.314489,0.9 -1.309975,2 -0.995486,1.1 -2.034975,2 -2.309975,2 -0.275,0 0.314489,-0.9 1.309975,-2 z m 183.578946,-31.58333 c 0.048,-1.16495 0.28494,-1.4019 0.60416,-0.60417 0.28887,0.72187 0.25335,1.58437 -0.0789,1.91667 -0.3323,0.33229 -0.56864,-0.25834 -0.52522,-1.3125 z m 39,0 c 0.048,-1.16495 0.28494,-1.4019 0.60416,-0.60417 0.28887,0.72187 0.25335,1.58437 -0.0789,1.91667 -0.33229,0.33229 -0.56864,-0.25834 -0.52522,-1.3125 z m -47.15464,-17.16667 -2.42431,-2.75 2.75,2.42431 c 1.5125,1.33338 2.75,2.57088 2.75,2.75 0,0.78428 -0.8098,0.14598 -3.07569,-2.42431 z m 55.07569,0.25 c 1.29175,-1.375 2.57363,-2.5 2.84863,-2.5 0.275,0 -0.55688,1.125 -1.84863,2.5 -1.29175,1.375 -2.57363,2.5 -2.84863,2.5 -0.275,0 0.55688,-1.125 1.84863,-2.5 z"
         id="path4243" /><path
         style="fill:#8cb2d6"
         d="m 139.08126,259.47572 c 0,-50.325 0.12169,-70.9125 0.27043,-45.75 0.14873,25.1625 0.14873,66.3375 0,91.5 -0.14874,25.1625 -0.27043,4.575 -0.27043,-45.75 z m 258.59963,29.41667 c 0.048,-1.16495 0.28494,-1.4019 0.60416,-0.60417 0.28887,0.72187 0.25335,1.58438 -0.0789,1.91667 -0.33229,0.33229 -0.56864,-0.25834 -0.52522,-1.3125 z M 177.99048,274.97572 c 0.002,-7.15 0.16103,-9.94379 0.35396,-6.20841 0.19293,3.73537 0.19149,9.58537 -0.003,13 -0.19468,3.41462 -0.35253,0.35841 -0.35078,-6.79159 z M -8.319109,264.89239 c 0.04798,-1.16495 0.284941,-1.4019 0.604167,-0.60417 0.288871,0.72187 0.253344,1.58438 -0.07895,1.91667 -0.332292,0.33229 -0.568641,-0.25834 -0.52522,-1.3125 z m 48.078943,-15.41667 c 0,-1.375 0.22698,-1.9375 0.50439,-1.25 0.27741,0.6875 0.27741,1.8125 0,2.5 -0.27741,0.6875 -0.50439,0.125 -0.50439,-1.25 z m 172.114466,-2 c 0,-2.475 0.19502,-3.4875 0.43337,-2.25 0.23836,1.2375 0.23836,3.2625 0,4.5 -0.23835,1.2375 -0.43337,0.225 -0.43337,-2.25 z m -3.52236,-60.66228 c 0.6875,-0.27741 1.8125,-0.27741 2.5,0 0.6875,0.27741 0.125,0.50439 -1.25,0.50439 -1.375,0 -1.9375,-0.22698 -1.25,-0.50439 z M -24.572471,140.72592 c 25.479072,-0.14865 66.879075,-0.1486 92.000005,1e-4 25.12092,0.14871 4.27441,0.27033 -46.32559,0.27027 -50.6,-5e-5 -71.153487,-0.12172 -45.674415,-0.27037 z m -0.575585,-38.99995 c 25.1625,-0.14873 66.3375,-0.14873 91.5,0 25.1625,0.14874 4.575,0.27043 -45.75,0.27043 -50.325,0 -70.9125,-0.12169 -45.75,-0.27043 z m 232.511656,0.0425 c 1.24391,-0.23919 3.04391,-0.23011 4,0.0202 0.95609,0.25029 -0.0617,0.446 -2.26166,0.4349 -2.2,-0.0111 -2.98225,-0.21589 -1.73834,-0.45508 z m 97.05934,-0.0422 c 15.57655,-0.15505 40.77655,-0.15493 56,2.6e-4 15.22345,0.1552 2.479,0.28205 -28.321,0.28191 -30.8,-1.5e-4 -43.25555,-0.12713 -27.679,-0.28217 z M 139.08126,-16.52428 c 0,-50.325 0.12169,-70.9125 0.27043,-45.75 0.14873,25.1625 0.14873,66.3375 0,91.5 -0.14874,25.1625 -0.27043,4.575 -0.27043,-45.75 z m 39,0 c 0,-50.325 0.12169,-70.9125 0.27043,-45.75 0.14873,25.1625 0.14873,66.3375 0,91.5 -0.14874,25.1625 -0.27043,4.575 -0.27043,-45.75 z M 35.351944,25.81344 c 0.6875,-0.27741 1.8125,-0.27741 2.5,0 0.6875,0.27741 0.125,0.50439 -1.25,0.50439 -1.375,0 -1.9375,-0.22698 -1.25,-0.50439 z M 268.10194,23.75707 c 38.14846,-0.69883 71.50119,-0.71345 71.50063,-0.0314 -3.5e-4,0.4125 -19.46313,0.65013 -43.25063,0.52806 -23.7875,-0.12206 -36.5,-0.34559 -28.25,-0.49671 z M -37.166053,-52.52428 c 0,-1.925 0.205795,-2.7125 0.457323,-1.75 0.251527,0.9625 0.251527,2.5375 0,3.5 -0.251528,0.9625 -0.457323,0.175 -0.457323,-1.75 z"
         id="path4241" /><path
         style="fill:#6b9ccb"
         d="m 123.08126,259.47572 c 0,-50.325 0.12169,-70.9125 0.27043,-45.75 0.14873,25.1625 0.14873,66.3375 0,91.5 -0.14874,25.1625 -0.27043,4.575 -0.27043,-45.75 z m -152.555002,40.25 -2.424314,-2.75 2.75,2.42431 c 1.5125,1.33338 2.75,2.57088 2.75,2.75 0,0.78428 -0.809799,0.14598 -3.075686,-2.42431 z m 107.575686,-7.25 c 0.99549,-1.1 2.03498,-2 2.30998,-2 0.275,0 -0.31449,0.9 -1.30998,2 -0.99549,1.1 -2.03498,2 -2.30998,2 -0.275,0 0.31449,-0.9 1.30998,-2 z m 115.920186,-23.5 c -8.9e-4,-11 0.14522,-15.63644 0.32467,-10.30319 0.17945,5.33324 0.18018,14.33324 0.002,20 -0.17857,5.66675 -0.3254,1.30319 -0.32628,-9.69681 z M 50.680894,281.89239 c 0.048,-1.16495 0.28494,-1.4019 0.60416,-0.60417 0.28887,0.72187 0.25335,1.58438 -0.0789,1.91667 -0.3323,0.33229 -0.56864,-0.25834 -0.52522,-1.3125 z m -74.884001,-14.91667 c 0.02038,-1.65 0.244498,-2.20394 0.498042,-1.23097 0.253543,0.97297 0.236869,2.32297 -0.03705,3 -0.273927,0.67703 -0.481372,-0.11903 -0.460992,-1.76903 z m 252.179117,-26 c 0.002,-6.05 0.16696,-8.39607 0.36601,-5.21349 0.19905,3.18258 0.1972,8.13258 -0.004,11 -0.20131,2.86742 -0.36417,0.26349 -0.36191,-5.78651 z M -38.398056,210.09816 c 0,-0.20765 0.7875,-0.99515 1.75,-1.75 1.586056,-1.24387 1.621426,-1.2085 0.377555,0.37756 -1.306369,1.66575 -2.127555,2.19548 -2.127555,1.37244 z m 247.749996,-7.28472 c 0.6875,-0.27741 1.8125,-0.27741 2.5,0 0.6875,0.27741 0.125,0.50439 -1.25,0.50439 -1.375,0 -1.9375,-0.22698 -1.25,-0.50439 z m 57.0625,-0.0208 c 0.72187,-0.28887 1.58438,-0.25335 1.91667,0.0789 0.33229,0.33229 -0.25834,0.56864 -1.3125,0.52522 -1.16495,-0.048 -1.4019,-0.28494 -0.60417,-0.60416 z m -244.999996,-20 c 0.72187,-0.28887 1.58437,-0.25335 1.91667,0.0789 0.33229,0.33229 -0.25834,0.56864 -1.3125,0.52522 -1.16495,-0.048 -1.4019,-0.28494 -0.60417,-0.60416 z m 384.059936,-6.06692 c -1.24387,-1.58606 -1.2085,-1.62143 0.37756,-0.37756 0.9625,0.75485 1.75,1.54235 1.75,1.75 0,0.82304 -0.82119,0.29331 -2.12756,-1.37244 z M -25.148056,156.72597 c 25.1625,-0.14873 66.3375,-0.14873 91.5,0 25.1625,0.14874 4.575,0.27043 -45.75,0.27043 -50.325,0 -70.9125,-0.12169 -45.75,-0.27043 z m 0,-71 c 25.1625,-0.14873 66.3375,-0.14873 91.5,0 25.1625,0.14874 4.575,0.27043 -45.75,0.27043 -50.325,0 -70.9125,-0.12169 -45.75,-0.27043 z m 232.511656,0.0425 c 1.24391,-0.23919 3.04391,-0.23011 4,0.0202 0.95609,0.25029 -0.0617,0.446 -2.26166,0.4349 -2.2,-0.0111 -2.98225,-0.21589 -1.73834,-0.45508 z m 95.98834,-0.0421 c 15.5375,-0.15498 40.9625,-0.15498 56.5,0 15.5375,0.15498 2.825,0.28178 -28.25,0.28178 -31.075,0 -43.7875,-0.1268 -28.25,-0.28178 z M 123.08126,-16.52428 c 0,-50.325 0.12169,-70.9125 0.27043,-45.75 0.14873,25.1625 0.14873,66.3375 0,91.5 -0.14874,25.1625 -0.27043,4.575 -0.27043,-45.75 z m 71,0 c 0,-50.325 0.12169,-70.9125 0.27043,-45.75 0.14873,25.1625 0.14873,66.3375 0,91.5 -0.14874,25.1625 -0.27043,4.575 -0.27043,-45.75 z m 72.34244,56.25045 c 16.67697,-0.15399 43.67697,-0.15389 60,2.4e-4 16.32303,0.15412 2.67824,0.28012 -30.32176,0.27999 -33,-1.3e-4 -46.35521,-0.12623 -29.67824,-0.28023 z M -12.525611,25.72572 c -1.243871,-1.58606 -1.208501,-1.62143 0.377555,-0.37756 0.9625,0.75485 1.75,1.54235 1.75,1.75 0,0.82304 -0.821186,0.29331 -2.127555,-1.37244 z m 235.586871,-41.75 c 2.3e-4,-24.2 0.13067,-33.956913 0.28986,-21.682029 0.1592,12.274889 0.15901,32.074889 -4.1e-4,43.999999 -0.15943,11.92512 -0.28968,1.88203 -0.28945,-22.31797 z m -244.586871,32.75 c -1.243871,-1.58606 -1.208501,-1.62143 0.377555,-0.37756 0.9625,0.75485 1.75,1.54235 1.75,1.75 0,0.82304 -0.821186,0.29331 -2.127555,-1.37244 z M 8.680894,-46.107613 c 0.048,-1.164943 0.28494,-1.4019 0.60416,-0.604167 0.28887,0.721875 0.25335,1.584375 -0.0789,1.916667 -0.3323,0.332291 -0.56864,-0.258334 -0.52522,-1.3125 z m -61.846947,-6.416667 c 0,-1.925 0.205795,-2.7125 0.457323,-1.75 0.251527,0.9625 0.251527,2.5375 0,3.5 -0.251528,0.9625 -0.457323,0.175 -0.457323,-1.75 z m 31.580497,-37.683114 c 0.721875,-0.288871 1.584375,-0.253344 1.916667,0.07895 0.332291,0.332292 -0.258334,0.568641 -1.3125,0.52522 -1.164943,-0.04798 -1.4019,-0.284941 -0.604167,-0.604167 z"
         id="path4239" /><path
         style="fill:#4382be"
         d="m 23.865694,319.75814 c 1.52006,-0.22986 3.77006,-0.22371 5,0.0136 1.22994,0.23736 -0.0138,0.42542 -2.76375,0.41792 -2.75,-0.008 -3.75631,-0.20172 -2.23625,-0.43157 z M 413.94475,280.97572 c 0.004,-4.4 0.17944,-6.07561 0.39069,-3.72357 0.21124,2.35204 0.20827,5.95204 -0.007,8 -0.21487,2.04796 -0.38771,0.12357 -0.38408,-4.27643 z m -219.93572,-47.5 c 0,-9.075 0.1516,-12.7875 0.3369,-8.25 0.18529,4.5375 0.18529,11.9625 0,16.5 -0.1853,4.5375 -0.3369,0.825 -0.3369,-8.25 z M 80.680894,246.89239 c 0.048,-1.16495 0.28494,-1.4019 0.60416,-0.60417 0.28887,0.72187 0.25335,1.58438 -0.0789,1.91667 -0.3323,0.33229 -0.56864,-0.25834 -0.52522,-1.3125 z m 0,-4 c 0.048,-1.16495 0.28494,-1.4019 0.60416,-0.60417 0.28887,0.72187 0.25335,1.58438 -0.0789,1.91667 -0.3323,0.33229 -0.56864,-0.25834 -0.52522,-1.3125 z m -76.57895,-6.41667 c 0.99549,-1.1 2.03498,-2 2.30998,-2 0.275,0 -0.31449,0.9 -1.30998,2 -0.99549,1.1 -2.03498,2 -2.30998,2 -0.274995,0 0.31449,-0.9 1.30998,-2 z m 223.918576,-25 c 0,-10.725 0.14711,-15.1125 0.32692,-9.75 0.17981,5.3625 0.17981,14.1375 0,19.5 -0.17981,5.3625 -0.32692,0.975 -0.32692,-9.75 z m -207.606076,1.31689 c 0.72187,-0.28887 1.58437,-0.25335 1.91667,0.0789 0.33229,0.33229 -0.25834,0.56864 -1.3125,0.52522 -1.16495,-0.048 -1.4019,-0.28494 -0.60417,-0.60416 z m 59.11181,-10.06689 -2.42431,-2.75 2.75,2.42431 c 2.57029,2.26589 3.20859,3.07569 2.42431,3.07569 -0.17912,0 -1.41662,-1.2375 -2.75,-2.75 z m -54.17431,-19.95573 c 1.2375,-0.23836 3.2625,-0.23836 4.5,0 1.2375,0.23835 0.225,0.43337 -2.25,0.43337 -2.475,0 -3.4875,-0.19502 -2.25,-0.43337 z M 360.47438,161.72572 c -1.24387,-1.58606 -1.2085,-1.62143 0.37756,-0.37756 0.9625,0.75485 1.75,1.54235 1.75,1.75 0,0.82304 -0.82119,0.29331 -2.12756,-1.37244 z m -231,-13 c -1.24387,-1.58606 -1.2085,-1.62143 0.37756,-0.37756 0.9625,0.75485 1.75,1.54235 1.75,1.75 0,0.82304 -0.82119,0.29331 -2.12756,-1.37244 z m -0.87244,-53.62756 c 0,-0.20765 0.7875,-0.99515 1.75,-1.75 1.58606,-1.24387 1.62143,-1.2085 0.37756,0.37756 -1.30637,1.66575 -2.12756,2.19548 -2.12756,1.37244 z M -15.525611,22.72572 c -1.243871,-1.58606 -1.208501,-1.62143 0.377555,-0.37756 0.9625,0.75485 1.75,1.54235 1.75,1.75 0,0.82304 -0.821186,0.29331 -2.127555,-1.37244 z m 16.532543,-20.5 -1.904988,-2.25 2.25,1.90499 c 2.11444,1.79022 2.70524,2.59501 1.90499,2.59501 -0.18976,0 -1.202259,-1.0125 -2.250002,-2.25 z"
         id="path4237" /><path
         style="fill:#2e74b6"
         d="m 7.414444,286.79261 c 0.72187,-0.28887 1.58437,-0.25335 1.91667,0.0789 0.33229,0.33229 -0.25834,0.56864 -1.3125,0.52522 -1.16495,-0.048 -1.4019,-0.28494 -0.60417,-0.60416 z M 414.00443,258.47572 c 0,-8.525 0.15337,-12.0125 0.34082,-7.75 0.18745,4.2625 0.18745,11.2375 0,15.5 -0.18745,4.2625 -0.34082,0.775 -0.34082,-7.75 z m -420.902486,-33 c 0.995486,-1.1 2.034975,-2 2.309975,-2 0.275,0 -0.314489,0.9 -1.309975,2 -0.995486,1.1 -2.034975,2 -2.309975,2 -0.275,0 0.314489,-0.9 1.309975,-2 z m 281.828136,-36.5 c 0.004,-3.85 0.18518,-5.30246 0.40166,-3.2277 0.21647,2.07477 0.21284,5.22477 -0.008,7 -0.22091,1.77524 -0.39803,0.0777 -0.39359,-3.7723 z m -46.92565,-11.5 c 0,-8.525 0.15337,-12.0125 0.34082,-7.75 0.18745,4.2625 0.18745,11.2375 0,15.5 -0.18745,4.2625 -0.34082,0.775 -0.34082,-7.75 z m 31.90738,-88.5 c 0.006,-3.3 0.1923,-4.52944 0.41486,-2.73209 0.22256,1.79735 0.21797,4.49735 -0.0102,6 -0.22818,1.50265 -0.41027,0.0321 -0.40466,-3.26791 z m -263.904878,-76.75 -1.904988,-2.25 2.25,1.90499 c 2.114445,1.79022 2.705241,2.59501 1.904988,2.59501 -0.189757,0 -1.202257,-1.0125 -2.25,-2.25 z m 358.039648,-28.25 c -4.2e-4,-17.05 0.13593,-24.165584 0.30301,-15.81241 0.16707,8.35318 0.16742,22.30318 7.7e-4,31 -0.16665,8.69683 -0.30335,1.86241 -0.30378,-15.18759 z m -362.572191,23.75 c -1.243871,-1.58606 -1.208501,-1.62143 0.377555,-0.37756 0.9625,0.75485 1.75,1.54235 1.75,1.75 0,0.82304 -0.821186,0.29331 -2.127555,-1.37244 z m 413.999991,-134 c -1.24387,-1.58606 -1.2085,-1.62143 0.37756,-0.37756 0.9625,0.75485 1.75,1.54235 1.75,1.75 0,0.82304 -0.82119,0.29331 -2.12756,-1.37244 z"
         id="path4235" /><path
         style="fill:#1564ae"
         d="m -40.525611,310.72572 c -1.243871,-1.58606 -1.208501,-1.62143 0.377555,-0.37756 0.9625,0.75485 1.75,1.54235 1.75,1.75 0,0.82304 -0.821186,0.29331 -2.127555,-1.37244 z m 71.627555,-34.25 c 0.99549,-1.1 2.03498,-2 2.30998,-2 0.275,0 -0.31449,0.9 -1.30998,2 -0.99549,1.1 -2.03498,2 -2.30998,2 -0.275,0 0.31449,-0.9 1.30998,-2 z m -91.267997,-13 c 0,-1.925 0.205795,-2.7125 0.457323,-1.75 0.251527,0.9625 0.251527,2.5375 0,3.5 -0.251528,0.9625 -0.457323,0.175 -0.457323,-1.75 z m 474.170483,-35 c 0,-8.525 0.15337,-12.0125 0.34082,-7.75 0.18745,4.2625 0.18745,11.2375 0,15.5 -0.18745,4.2625 -0.34082,0.775 -0.34082,-7.75 z m -440.402486,-8.5 c 1.291745,-1.375 2.573628,-2.5 2.848628,-2.5 0.275,0 -0.556883,1.125 -1.848628,2.5 -1.291745,1.375 -2.573628,2.5 -2.848628,2.5 -0.275,0 0.556883,-1.125 1.848628,-2.5 z m 348.320066,-31.5 c 0,-3.575 0.1815,-5.0375 0.40333,-3.25 0.22182,1.7875 0.22182,4.7125 0,6.5 -0.22183,1.7875 -0.40333,0.325 -0.40333,-3.25 z m 72.55237,-0.75 c -1.24387,-1.58606 -1.2085,-1.62143 0.37756,-0.37756 1.66575,1.30637 2.19548,2.12756 1.37244,2.12756 -0.20765,0 -0.99515,-0.7875 -1.75,-1.75 z m -10.05994,-18.93311 c 0.72187,-0.28887 1.58438,-0.25335 1.91667,0.0789 0.33229,0.33229 -0.25834,0.56864 -1.3125,0.52522 -1.16495,-0.048 -1.4019,-0.28494 -0.60417,-0.60416 z m -47,-1 c 0.72187,-0.28887 1.58438,-0.25335 1.91667,0.0789 0.33229,0.33229 -0.25834,0.56864 -1.3125,0.52522 -1.16495,-0.048 -1.4019,-0.28494 -0.60417,-0.60416 z M 228.00443,147.47572 c 0,-8.525 0.15337,-12.0125 0.34082,-7.75 0.18745,4.2625 0.18745,11.2375 0,15.5 -0.18745,4.2625 -0.34082,0.775 -0.34082,-7.75 z m 46.79246,4.5 c 0.0204,-1.65 0.2445,-2.20394 0.49804,-1.23097 0.25354,0.97297 0.23687,2.32297 -0.0371,3 -0.27393,0.67703 -0.48137,-0.11903 -0.46099,-1.76903 z m -14.79756,-43.5 c 0,-7.975 0.1553,-11.2375 0.34512,-7.25 0.18981,3.9875 0.18981,10.5125 0,14.5 -0.18982,3.9875 -0.34512,0.725 -0.34512,-7.25 z M 212.68089,84.89239 c 0.048,-1.16495 0.28494,-1.4019 0.60416,-0.60417 0.28887,0.72187 0.25335,1.58437 -0.0789,1.91667 -0.33229,0.33229 -0.56864,-0.25834 -0.52522,-1.3125 z M 81.101944,48.47572 c 0.99549,-1.1 2.03498,-2 2.30998,-2 0.275,0 -0.31449,0.9 -1.30998,2 -0.99549,1.1 -2.03498,2 -2.30998,2 -0.275,0 0.31449,-0.9 1.30998,-2 z m -65.62756,-53.75 c -1.24387,-1.58606 -1.2085,-1.62143 0.37756,-0.37756 0.9625,0.75485 1.75,1.54235 1.75,1.75 0,0.82304 -0.82119,0.29331 -2.12756,-1.37244 z m 258.877556,-51.999 c 12.2375,-0.159095 32.2625,-0.159095 44.5,0 12.2375,0.159095 2.225,0.289263 -22.25,0.289263 -24.475,0 -34.4875,-0.130168 -22.25,-0.289263 z"
         id="path4233" /><path
         style="fill:#0056a7"
         d="m -73.477609,376.48253 c -9.810451,-1.69718 -17.96603,-8.36558 -21.529081,-17.60322 -1.80772,-4.68673 -1.891366,-9.12707 -1.891366,-100.40359 v -95.5 l 2.391634,-4.8583 c 2.884611,-5.85972 7.684538,-10.83895 13.384925,-13.88493 l 4.223441,-2.25677 95.42614,-0.26975 c 109.526836,-0.30961 102.617126,-0.81742 111.639076,8.20453 9.02195,9.02195 8.51414,2.11224 8.20453,111.63908 l -0.26975,95.42614 -2.25677,4.22344 c -3.04598,5.70039 -8.02521,10.50032 -13.88493,13.38493 l -4.8583,2.39163 -92.999996,0.14953 c -51.15,0.0822 -95.060799,-0.20698 -97.579553,-0.64272 z M 117.98706,359.38742 c 5.90016,-4.64106 5.61502,0.44437 5.61333,-100.11204 -0.002,-103.18629 0.40303,-97.34142 -6.99845,-101.05639 -3.27524,-1.64391 -9.52523,-1.74024 -97.327036,-1.5 l -93.827031,0.25673 -3.422965,3.73531 -3.422964,3.73532 v 95.11468 95.11469 l 3.4,3.4 3.4,3.4 h 94.96514 c 94.789366,0 94.970056,-0.004 97.619976,-2.0883 z M 11.101944,334.33357 c -28.840275,-3.66336 -52.702912,-19.16357 -63.515628,-41.2572 -5.267129,-10.76232 -6.984372,-18.05254 -6.984372,-29.65079 0,-36.29219 25.74153,-67.0543 65,-77.67747 4.88306,-1.32134 10.35578,-1.76056 22,-1.76563 13.46449,-0.006 16.48493,0.30078 23,2.3351 32.42435,10.12445 50.051506,37.16037 45.07518,69.13469 -3.81989,24.54382 -20.17972,45.70884 -36.85822,47.68416 -6.39502,0.7574 -14.67704,-2.77521 -18.61713,-7.94093 l -2.68623,-3.52184 -5.7068,3.44164 c -10.26028,6.18775 -21.69444,8.37588 -31.132933,5.95786 -14.40674,-3.69084 -22.699354,-14.37419 -23.817231,-30.68367 -1.450628,-21.16423 11.136505,-44.57156 28.582254,-53.15225 6.01224,-2.95711 7.47255,-3.25992 15.64613,-3.24436 9.53575,0.0182 13.55283,1.36629 21.23827,7.12758 l 3.22329,2.41629 0.61665,-2.45692 c 2.1619,-8.61372 14.43677,-7.56634 14.43677,1.23185 0,1.93929 -2.28636,16.34828 -5.0808,32.01998 -5.46144,30.62872 -5.48694,32.46149 -0.4692,33.72087 6.17344,1.54943 17.99469,-10.1312 22.53541,-22.26736 1.16062,-3.10204 2.60689,-9.15213 3.21393,-13.44464 3.6662,-25.92449 -11.62386,-46.80384 -38.45945,-52.51831 -8.72713,-1.8584 -26.15073,-1.32213 -35.23989,1.08462 -24.093348,6.37975 -43.926663,25.70875 -50.073806,48.80054 -2.081026,7.81739 -1.821403,21.27813 0.559048,28.98513 8.633463,27.95191 41.939172,45.10411 79.397448,40.88912 18.76291,-2.11129 32.38373,-7.1117 47.60199,-17.4754 4.54737,-3.09678 8.63993,-5.63051 9.09458,-5.63051 3.60909,0 7.920736,4.61081 7.920736,8.47033 0,2.568 -5.007026,7.3416 -13.240306,12.62303 -21.94701,14.07842 -50.17871,20.20438 -77.25969,16.76449 z m 9.23546,-50.36824 c 11.61076,-5.24634 16.37105,-11.31613 18.79002,-23.95891 2.05043,-10.71667 1.85941,-14.36564 -1.05859,-20.2213 -5.13699,-10.30859 -16.09612,-14.06466 -26.15881,-8.96552 -12.289664,6.22765 -21.389714,23.79104 -20.039851,38.67757 1.446111,15.94797 12.621851,21.62792 28.467231,14.46816 z M 242.3784,376.19185 c -1.49794,-0.66887 -14.22691,-14.04113 -28.28659,-29.71613 -21.04541,-23.46333 -26.2446,-29.85237 -29.41964,-36.15238 -5.7939,-11.49645 -6.22323,-15.9093 -5.87514,-60.38749 l 0.30491,-38.96013 2.80615,-5.71444 c 4.91147,-10.00171 16.61045,-17.78556 26.73136,-17.78556 h 3.96249 v -42 c 0,-23.1 0.1125,-42.3375 0.25,-42.75 0.1375,-0.4125 -2.99754,-1.04011 -6.96674,-1.3947 -9.03987,-0.80756 -15.05635,-3.65455 -20.2914,-9.60188 -7.36717,-8.36955 -7.06382,-3.41989 -6.76161,-110.32728 l 0.26975,-95.42614 2.25677,-4.22344 c 3.04598,-5.70039 8.02521,-10.50032 13.88493,-13.38493 l 4.8583,-2.39163 h 96 96 l 5.22705,2.36327 c 6.43292,2.90848 12.34112,9.1458 14.86717,15.69538 1.82658,4.73599 1.90578,8.91028 1.90578,100.44135 v 95.5 l -2.39163,4.8583 c -2.88461,5.85972 -7.68454,10.83895 -13.38493,13.88493 l -4.22344,2.25677 -59.17559,0.28025 -59.17558,0.28024 -0.34046,26.21976 c -0.18725,14.42086 -0.22566,26.50631 -0.0854,26.85655 0.14031,0.35025 2.1122,-0.003 4.38198,-0.78502 12.04835,-4.15099 22.29558,-2.05706 34.34312,7.01772 0.72959,0.54956 2.7913,-0.27151 5.60312,-2.23144 15.27961,-10.65042 38.29145,-5.45598 45.95422,10.3732 1.19513,2.46881 2.24532,4.48851 2.33376,4.48824 0.0884,-2.8e-4 2.52812,-0.90028 5.42152,-2 11.36684,-4.32031 24.42982,-1.90419 32.31007,5.97606 8.44184,8.44184 8.37366,7.8832 8.04278,65.8978 -0.22538,39.51771 -0.59291,51.5467 -1.70545,55.81803 -1.81828,6.98085 -31.9573,73.16016 -34.52435,75.80861 -1.89515,1.95525 -3.39793,2.00484 -67.16115,2.21613 -49.44655,0.16385 -65.8814,-0.078 -67.94617,-1 z m 140.7502,-47.46613 14.97334,-32.75 0.29249,-51.21749 c 0.32193,-56.37129 0.39943,-55.58054 -5.75976,-58.76558 -4.03218,-2.08512 -11.35539,-1.90559 -15.82257,0.3879 -4.34214,2.22929 -6.70235,5.89123 -7.70266,11.95094 -0.39547,2.39567 -1.57144,5.20817 -2.61327,6.25 -2.43127,2.43127 -7.01829,2.4238 -10.03345,-0.0163 -2.20467,-1.78422 -2.39384,-2.76293 -2.86078,-14.80096 -0.55508,-14.31043 -1.51515,-16.95216 -7.23601,-19.91053 -4.42466,-2.28807 -12.74399,-2.15777 -16.89161,0.26458 -5.31857,3.1062 -6.97373,7.05367 -7.74004,18.45949 -0.75321,11.21095 -1.75622,12.89795 -7.66848,12.89795 -5.5357,0 -6.88865,-2.70219 -7.46153,-14.9026 -0.55989,-11.92368 -1.77249,-14.89295 -7.2358,-17.71813 -4.57171,-2.36412 -12.55134,-2.27308 -16.77102,0.19135 -5.68936,3.32276 -7.29661,7.28363 -7.93447,19.55355 -0.47997,9.23293 -0.85002,11.01049 -2.56104,12.30227 -2.76266,2.08574 -6.82629,1.94079 -9.63922,-0.34384 l -2.36078,-1.91741 -0.0174,-57.83259 c -0.01,-31.80793 -0.12205,-59.0688 -0.25,-60.57972 -0.33556,-3.96242 -6.64508,-10.51758 -11.34039,-11.78189 -6.95266,-1.87216 -15.13731,1.73465 -18.4432,8.12754 -1.29919,2.51236 -1.5999,15.14533 -2.14524,90.12238 l -0.63425,87.20044 -2.28932,2.28932 c -2.97402,2.97402 -6.851,2.90948 -9.92569,-0.16522 l -2.45455,-2.45454 v -25.54546 -25.54545 h -2.78811 c -4.41707,0 -11.4361,4.10199 -13.68901,8 -1.91736,3.31742 -2.03828,5.47181 -2.31806,41.29933 -0.32043,41.03254 0.10051,45.372 5.23676,53.98512 1.33581,2.24006 12.84019,15.69245 25.56528,29.89419 l 23.13652,25.82136 h 60.20498 60.20497 z M 213.60194,82.15386 c 0,-6.76576 2.74055,-13.23308 8.08599,-19.08185 6.42541,-7.03042 12.9853,-9.95283 22.41401,-9.98538 16.04624,-0.0554 29.01669,11.66894 31.06745,28.08268 l 0.663,5.30641 h 56.43443 c 61.35313,0 59.71773,0.14293 64.24682,-5.61488 2.08443,-2.64992 2.0883,-2.83061 2.0883,-97.61998 v -94.96514 l -3.4,-3.4 -3.4,-3.4 h -95.11469 -95.11468 l -3.73532,3.42296 -3.73531,3.42297 -0.25673,93.82703 c -0.24024,87.80181 -0.14391,94.0518 1.5,97.32704 2.19262,4.36844 7.26448,6.9964 13.50673,6.99845 l 4.75,0.0015 z m 17.25623,-44.3228 c -1.78407,-0.87951 -4.14657,-3.05988 -5.25,-4.84526 -1.93214,-3.12627 -2.00609,-4.94053 -2.00249,-49.12811 0.004,-43.714267 0.0958,-46.03295 1.95226,-49.077636 4.38569,-7.192737 0.38998,-6.804334 69.99978,-6.804334 68.44738,0 67.04173,-0.115929 71.32017,5.882068 2.21025,3.098592 2.22572,3.400158 2.49328,48.617932 0.30066,50.81145 0.39828,50.01007 -6.66711,54.73007 l -3.39789,2.26993 -62.60211,-0.0228 C 241.38245,39.43282 233.7247,39.24418 230.85817,37.83103 Z M 339.07416,22.5287 c -1.08472,-1.07085 -8.93121,-7.97878 -17.43665,-15.35094 l -15.46442,-13.40392 -3.93562,2.85094 c -4.99434,3.61789 -7.7186,3.59491 -11.92756,-0.1006 L 286.9483,-6.42736 270.02512,8.15266 c -9.30775,8.01901 -17.07318,14.9722 -17.25651,15.45154 -0.18637,0.48726 19.20109,0.87152 43.97222,0.87152 43.91229,0 44.28805,-0.0173 42.33333,-1.94702 z M 257.54592,-0.8666 c 9.43863,-8.16327 17.02499,-15.22665 16.85858,-15.6964 -0.27737,-0.78297 -32.77876,-29.2105 -34.88445,-30.511893 -0.54997,-0.339899 -0.91811,11.919902 -0.91811,30.574933 0,17.81529 0.38147,30.9997 0.89142,30.80901 0.49028,-0.18333 8.61393,-7.01237 18.05256,-15.17565 z m 97.05602,-15.74101 c 0,-17.28936 -0.38731,-30.935412 -0.87277,-30.750003 -2.54333,0.97136 -36.18077,31.172653 -35.46869,31.845473 5.1924,4.90604 34.90016,29.98786 35.51865,29.98786 0.45254,0 0.82281,-13.9875 0.82281,-31.08333 z m -36,-20.549449 c 11.825,-10.226725 21.65,-18.99301 21.83333,-19.480633 0.19065,-0.507084 -18.53656,-0.886588 -43.75,-0.886588 -24.24583,0 -44.08333,0.387974 -44.08333,0.862165 0,0.964502 42.74317,38.148905 43.81687,38.118465 0.37572,-0.01065 10.35813,-8.38668 22.18313,-18.613409 z M -77.700066,100.03178 C -87.870541,96.40405 -94.83205,87.98219 -96.486941,77.30389 c -0.603919,-3.89682 -0.871297,-41.4834 -0.695918,-97.82817 l 0.284803,-91.5 2.363271,-5.22705 c 2.908474,-6.43292 9.145801,-12.34112 15.695379,-14.86717 4.73599,-1.82658 8.910285,-1.90578 100.44135,-1.90578 h 95.499996 l 4.8583,2.39163 c 5.85972,2.88461 10.83895,7.68454 13.88493,13.38493 l 2.25677,4.22344 0.26975,95.42614 c 0.30955,109.50518 0.81461,102.61993 -8.18799,111.62254 -8.97392,8.97392 -2.21941,8.45772 -110.013256,8.40743 -76.560541,-0.0357 -94.776127,-0.2963 -97.87051,-1.40005 z M 116.60194,84.72417 c 7.40118,-3.69731 6.99671,2.14266 6.99845,-101.04811 0.002,-100.55641 0.28683,-95.47098 -5.61333,-100.11204 -2.64992,-2.08444 -2.83061,-2.0883 -97.619976,-2.0883 h -94.96514 l -3.4,3.4 -3.4,3.4 v 94.87749 c 0,104.90829 -0.482198,97.22818 6.366714,101.40445 3.02472,1.84438 6.338328,1.91066 95.633286,1.91277 86.065326,0.002 92.743466,-0.11945 95.999996,-1.74626 z M 48.405214,56.39687 c -7.82899,-1.1488 -19.5189,-5.20395 -29.96547,-10.39483 -31.219005,-15.51263 -55.839874,-43.67282 -66.909976,-76.52848 -6.35039,-18.847721 -4.78576,-36.750904 4.00329,-45.807421 5.97708,-6.158973 18.584289,-13.190419 23.650094,-13.190419 7.441169,0 9.852539,2.638856 20.121709,22.019967 12.002213,22.6519 12.106573,25.873631 1.065508,32.893583 l -5.810733,3.69449 4.161017,5.94598 c 6.645911,9.49683 14.675521,18.1374 23.333981,25.10945 7.4631,6.0095 13.43368,9.92991 13.95061,9.16027 0.11959,-0.17806 1.71188,-2.70525 3.53842,-5.61599 3.30675,-5.26955 7.2078,-8.20775 10.89744,-8.20775 2.06747,0 29.29258,13.16426 36.05922,17.43585 8.31945,5.25184 9.45516,12.66343 3.5567,23.21085 -5.3488,9.56456 -11.52269,15.86739 -17.81221,18.1842 -6.32576,2.33017 -16.26537,3.20167 -23.8396,2.09025 z m 19.95167,-16.91319 c 2.63002,-1.60355 10.24506,-11.54294 10.24506,-13.37217 0,-0.63929 -24.80811,-13.63579 -26.02841,-13.63579 -0.54454,0 -2.30646,2.1375 -3.91537,4.75 -7.50275,12.18276 -16.41355,10.77959 -36.33875,-5.72224 -19.224102,-15.92119 -35.501435,-38.35556 -33.136501,-45.67067 1.481228,-4.581672 3.058298,-6.498379 8.102656,-9.847645 l 5.394454,-3.581715 -6.672412,-12.963865 c -3.669827,-7.130126 -7.180041,-12.963865 -7.800477,-12.963865 -1.948341,0 -10.849775,6.371811 -13.024713,9.32333 -3.110628,4.221306 -2.952969,18.584701 0.309279,28.17667 6.00248,17.64906 15.416994,32.81125 28.597715,46.05698 18.766159,18.85871 43.681999,31.38137 62.512529,31.4187 6.73848,0.0134 9.17455,-0.39443 11.75494,-1.96772 z"
         id="path4231" /></g></g></svg>
