<?xml version="1.0" encoding="UTF-8" standalone="no"?>
<!-- Created with Inkscape (http://www.inkscape.org/) -->

<svg
   version="1.1"
   id="svg59"
   width="512"
   height="512"
   viewBox="0 0 512 512"
   sodipodi:docname="clientes.svg"
   inkscape:version="1.2.2 (732a01da63, 2022-12-09)"
   xml:space="preserve"
   xmlns:inkscape="http://www.inkscape.org/namespaces/inkscape"
   xmlns:sodipodi="http://sodipodi.sourceforge.net/DTD/sodipodi-0.dtd"
   xmlns="http://www.w3.org/2000/svg"
   xmlns:svg="http://www.w3.org/2000/svg"><defs
     id="defs63" /><sodipodi:namedview
     id="namedview61"
     pagecolor="#ffffff"
     bordercolor="#000000"
     borderopacity="0.25"
     inkscape:showpageshadow="2"
     inkscape:pageopacity="0.0"
     inkscape:pagecheckerboard="0"
     inkscape:deskcolor="#d1d1d1"
     showgrid="false"
     inkscape:zoom="0.8046875"
     inkscape:cx="289.5534"
     inkscape:cy="350.4466"
     inkscape:window-width="1920"
     inkscape:window-height="1027"
     inkscape:window-x="1912"
     inkscape:window-y="-8"
     inkscape:window-maximized="1"
     inkscape:current-layer="g471" /><g
     id="g471"
     style="fill:#0057a8;fill-opacity:1;stroke:none"
     transform="translate(97.398058,137.00971)"><path
       style="fill:#0057a8;fill-opacity:1;stroke:none"
       d="m 248.72187,382.99272 -8.97915,-9.25 9.25,8.97915 c 8.59119,8.33963 9.7052,9.52085 8.97915,9.52085 -0.14897,0 -4.31147,-4.1625 -9.25,-9.25 z m 116.02085,-4.75 c 0.99549,-1.1 2.03498,-2 2.30998,-2 0.275,0 -0.31449,0.9 -1.30998,2 -0.99549,1.1 -2.03498,2 -2.30998,2 -0.275,0 0.31449,-0.9 1.30998,-2 z m -101.52208,-11.75 -8.47792,-8.75 8.75,8.47792 c 4.8125,4.66286 8.75,8.60036 8.75,8.75 0,0.72761 -1.14804,-0.35118 -9.02208,-8.47792 z m 34.49078,1.5 -5.9687,-6.25 6.25,5.9687 c 5.80572,5.54441 6.7076,6.5313 5.9687,6.5313 -0.15472,0 -2.96722,-2.8125 -6.25,-6.25 z m 50.5313,-4.12756 c 0,-0.20765 0.7875,-0.99515 1.75,-1.75 1.58606,-1.24387 1.62143,-1.2085 0.37756,0.37756 -1.30637,1.66575 -2.12756,2.19548 -2.12756,1.37244 z m -64.53759,-9.87244 -4.96241,-5.25 5.25,4.96241 c 4.87839,4.61116 5.7086,5.53759 4.96241,5.53759 -0.15818,0 -2.52068,-2.3625 -5.25,-5.25 z m 29.53759,-1.25 c -2.42903,-2.475 -4.19142,-4.5 -3.91642,-4.5 0.275,0 2.48739,2.025 4.91642,4.5 2.42903,2.475 4.19142,4.5 3.91642,4.5 -0.275,0 -2.48739,-2.025 -4.91642,-4.5 z m -93.59501,0.25 -1.90499,-2.25 2.25,1.90499 c 2.11444,1.79022 2.70524,2.59501 1.90499,2.59501 -0.18976,0 -1.20226,-1.0125 -2.25,-2.25 z m 81.56612,-12.5 -6.47111,-6.75 6.75,6.47111 c 3.7125,3.55911 6.75,6.59661 6.75,6.75 0,0.73602 -1.01824,-0.20142 -7.02889,-6.47111 z m 81.02889,1.37244 c 0,-0.20765 0.7875,-0.99515 1.75,-1.75 1.58606,-1.24387 1.62143,-1.2085 0.37756,0.37756 -1.30637,1.66575 -2.12756,2.19548 -2.12756,1.37244 z m -146.07569,-3.37244 -2.42431,-2.75 2.75,2.42431 c 2.57029,2.26589 3.20859,3.07569 2.42431,3.07569 -0.17912,0 -1.41662,-1.2375 -2.75,-2.75 z m 25.48068,-7.5 -1.90499,-2.25 2.25,1.90499 c 1.2375,1.04774 2.25,2.06024 2.25,2.25 0,0.80025 -0.80479,0.20945 -2.59501,-1.90499 z m -151.40499,-12.25 c -4.09747,-4.125 -7.22494,-7.5 -6.94994,-7.5 0.275,0 3.85247,3.375 7.94994,7.5 4.09747,4.125 7.22494,7.5 6.94994,7.5 -0.275,0 -3.85247,-3.375 -7.94994,-7.5 z m 167.92431,-2.25 -2.42431,-2.75 2.75,2.42431 c 2.57029,2.26589 3.20859,3.07569 2.42431,3.07569 -0.17912,0 -1.41662,-1.2375 -2.75,-2.75 z m 91.04153,-11 -5.46584,-5.75 5.75,5.46584 c 5.34193,5.07794 6.20809,6.03416 5.46584,6.03416 -0.15629,0 -2.74379,-2.5875 -5.75,-5.75 z m -243.49714,-2.5 -5.9687,-6.25 6.25,5.9687 c 3.4375,3.28278 6.25,6.09528 6.25,6.25 0,0.7389 -0.98689,-0.16298 -6.5313,-5.9687 z m 170.47747,-1.5 -3.44617,-3.75 3.75,3.44617 c 2.0625,1.89539 3.75,3.58289 3.75,3.75 0,0.76362 -0.84622,0.0442 -4.05383,-3.44617 z m 87.51624,-12.5 -4.96241,-5.25 5.25,4.96241 c 4.87839,4.61116 5.7086,5.53759 4.96241,5.53759 -0.15818,0 -2.52068,-2.3625 -5.25,-5.25 z m -70.00946,-1 -3.95295,-4.25 4.25,3.95295 c 3.95246,3.6762 4.70953,4.54705 3.95295,4.54705 -0.16338,0 -2.07588,-1.9125 -4.25,-4.25 z m -154.29506,-68.75 c 0,-1.375 0.22698,-1.9375 0.50439,-1.25 0.27741,0.6875 0.27741,1.8125 0,2.5 -0.27741,0.6875 -0.50439,0.125 -0.50439,-1.25 z m 108.71455,0.25 c -1.24387,-1.58606 -1.2085,-1.62143 0.37756,-0.37756 1.66575,1.30637 2.19548,2.12756 1.37244,2.12756 -0.20765,0 -0.99515,-0.7875 -1.75,-1.75 z m -86.79349,-0.83333 c 0.048,-1.16495 0.28494,-1.4019 0.60416,-0.60417 0.28887,0.72187 0.25335,1.58437 -0.0789,1.91667 -0.3323,0.33229 -0.56864,-0.25834 -0.52522,-1.3125 z m 102.79349,-14.16667 c -1.24387,-1.58606 -1.2085,-1.62143 0.37756,-0.37756 1.66575,1.30637 2.19548,2.12756 1.37244,2.12756 -0.20765,0 -0.99515,-0.7875 -1.75,-1.75 z m -24.05994,-62.93311 c 0.72187,-0.28887 1.58438,-0.25335 1.91667,0.0789 0.33229,0.33229 -0.25834,0.56864 -1.3125,0.52522 -1.16495,-0.048 -1.4019,-0.28494 -0.60417,-0.60416 z m 221,-1 c 0.72187,-0.28887 1.58438,-0.25335 1.91667,0.0789 0.33229,0.33229 -0.25834,0.56864 -1.3125,0.52522 -1.16495,-0.048 -1.4019,-0.28494 -0.60417,-0.60416 z m -223,-21 c 0.72187,-0.28887 1.58438,-0.25335 1.91667,0.0789 0.33229,0.3323 -0.25834,0.56864 -1.3125,0.52522 -1.16495,-0.048 -1.4019,-0.28494 -0.60417,-0.60416 z m 9,0 c 0.72187,-0.28887 1.58438,-0.25335 1.91667,0.0789 0.33229,0.3323 -0.25834,0.56864 -1.3125,0.52522 -1.16495,-0.048 -1.4019,-0.28494 -0.60417,-0.60416 z m 214,-1 c 0.72187,-0.28887 1.58438,-0.25335 1.91667,0.0789 0.33229,0.3323 -0.25834,0.56864 -1.3125,0.52522 -1.16495,-0.048 -1.4019,-0.28494 -0.60417,-0.60416 z M 3.742717,100.24272 c 0.9954863,-1.099998 2.0349751,-1.999998 2.3099751,-1.999998 0.275,0 -0.3144888,0.9 -1.3099751,1.999998 -0.9954863,1.1 -2.0349751,2 -2.3099751,2 -0.275,0 0.3144888,-0.9 1.3099751,-2 z"
       id="path485" /><path
       style="fill:#0057a8;fill-opacity:1;stroke:none"
       d="m 273.11516,376.49272 c -1.24387,-1.58606 -1.2085,-1.62143 0.37756,-0.37756 0.9625,0.75485 1.75,1.54235 1.75,1.75 0,0.82304 -0.82119,0.29331 -2.12756,-1.37244 z m 17,-16 c -1.24387,-1.58606 -1.2085,-1.62143 0.37756,-0.37756 1.66575,1.30637 2.19548,2.12756 1.37244,2.12756 -0.20765,0 -0.99515,-0.7875 -1.75,-1.75 z m 29,-2 c -1.24387,-1.58606 -1.2085,-1.62143 0.37756,-0.37756 0.9625,0.75485 1.75,1.54235 1.75,1.75 0,0.82304 -0.82119,0.29331 -2.12756,-1.37244 z m -96,-2 c -1.24387,-1.58606 -1.2085,-1.62143 0.37756,-0.37756 0.9625,0.75485 1.75,1.54235 1.75,1.75 0,0.82304 -0.82119,0.29331 -2.12756,-1.37244 z m 30,0 c -1.24387,-1.58606 -1.2085,-1.62143 0.37756,-0.37756 0.9625,0.75485 1.75,1.54235 1.75,1.75 0,0.82304 -0.82119,0.29331 -2.12756,-1.37244 z m 12,-22 c -1.24387,-1.58606 -1.2085,-1.62143 0.37756,-0.37756 1.66575,1.30637 2.19548,2.12756 1.37244,2.12756 -0.20765,0 -0.99515,-0.7875 -1.75,-1.75 z m 27.53255,-2.5 -1.90499,-2.25 2.25,1.90499 c 1.2375,1.04774 2.25,2.06024 2.25,2.25 0,0.80025 -0.80479,0.20945 -2.59501,-1.90499 z m 55.57293,-8.5 -8.47792,-8.75 8.75,8.47792 c 8.12674,7.87404 9.20553,9.02208 8.47792,9.02208 -0.14964,0 -4.08714,-3.9375 -8.75,-8.75 z M 27.492717,310.49442 c 9.2125,-0.16503 24.2875,-0.16503 33.5,0 9.2125,0.16503 1.675,0.30005 -16.75,0.30005 -18.425,0 -25.9625,-0.13502 -16.75,-0.30005 z m 275.187093,-2.5017 -2.93709,-3.25 3.25,2.93709 c 3.02946,2.73778 3.70965,3.56291 2.93709,3.56291 -0.1721,0 -1.6346,-1.4625 -3.25,-3.25 z m 189.04086,-82.75 c 0,-47.025 0.12229,-66.2625 0.27176,-42.75 0.14947,23.5125 0.14947,61.9875 0,85.5 -0.14947,23.5125 -0.27176,4.275 -0.27176,-42.75 z m -129.60551,73.25 c -1.24387,-1.58606 -1.2085,-1.62143 0.37756,-0.37756 0.9625,0.75485 1.75,1.54235 1.75,1.75 0,0.82304 -0.82119,0.29331 -2.12756,-1.37244 z m -244.46745,-3.5 -1.90499,-2.25 2.25,1.90499 c 2.11444,1.79022 2.70524,2.59501 1.90499,2.59501 -0.18976,0 -1.20226,-1.0125 -2.25,-2.25 z m -94.927164,-90.25 c 6.8e-5,-46.75 0.122441,-65.72876 0.271941,-42.17502 0.1495,23.55374 0.149445,61.80374 -1.23e-4,85 -0.149567,23.19626 -0.271886,3.92502 -0.271818,-42.82498 z m 285.394614,77.75 c -1.24387,-1.58606 -1.2085,-1.62143 0.37756,-0.37756 0.9625,0.75485 1.75,1.54235 1.75,1.75 0,0.82304 -0.82119,0.29331 -2.12756,-1.37244 z M 478.05522,140.55961 c 0.72187,-0.28887 1.58438,-0.25335 1.91667,0.0789 0.33229,0.33229 -0.25834,0.56864 -1.3125,0.52522 -1.16495,-0.048 -1.4019,-0.28494 -0.60417,-0.60416 z m -328.49485,-1.06603 c 11.99971,-0.15964 31.34971,-0.15944 43,4.3e-4 11.65029,0.15986 1.83235,0.29047 -21.81765,0.29023 -23.65,-2.3e-4 -33.18206,-0.13103 -21.18235,-0.29066 z m 111.93235,-19.94019 c 0.9625,-0.25152 2.5375,-0.25152 3.5,0 0.9625,0.25153 0.175,0.45733 -1.75,0.45733 -1.925,0 -2.7125,-0.2058 -1.75,-0.45733 z m 222.5625,-0.99378 c 0.72187,-0.28887 1.58438,-0.25335 1.91667,0.0789 0.33229,0.3323 -0.25834,0.56864 -1.3125,0.52522 -1.16495,-0.048 -1.4019,-0.28494 -0.60417,-0.60416 z"
       id="path483" /><path
       style="fill:#0057a8;fill-opacity:1;stroke:none"
       d="m 318.24272,401.86516 c 0,-0.20765 0.7875,-0.99515 1.75,-1.75 1.58606,-1.24387 1.62143,-1.2085 0.37756,0.37756 -1.30637,1.66575 -2.12756,2.19548 -2.12756,1.37244 z m -59.1875,-6.30555 c 0.72187,-0.28887 1.58438,-0.25335 1.91667,0.0789 0.33229,0.33229 -0.25834,0.56864 -1.3125,0.52522 -1.16495,-0.048 -1.4019,-0.28494 -0.60417,-0.60416 z m 17.05994,-16.06689 c -1.24387,-1.58606 -1.2085,-1.62143 0.37756,-0.37756 1.66575,1.30637 2.19548,2.12756 1.37244,2.12756 -0.20765,0 -0.99515,-0.7875 -1.75,-1.75 z m -26.46745,-26.5 -1.90499,-2.25 2.25,1.90499 c 2.11444,1.79022 2.70524,2.59501 1.90499,2.59501 -0.18976,0 -1.20226,-1.0125 -2.25,-2.25 z m 109.51932,-18.5 -2.42431,-2.75 2.75,2.42431 c 2.57029,2.26589 3.20859,3.07569 2.42431,3.07569 -0.17912,0 -1.41662,-1.2375 -2.75,-2.75 z m 28.15464,-1.83333 c 0.048,-1.16495 0.28494,-1.4019 0.60416,-0.60417 0.28887,0.72187 0.25335,1.58438 -0.0789,1.91667 -0.33229,0.33229 -0.56864,-0.25834 -0.52522,-1.3125 z m -98.20651,-4.16667 c -1.24387,-1.58606 -1.2085,-1.62143 0.37756,-0.37756 1.66575,1.30637 2.19548,2.12756 1.37244,2.12756 -0.20765,0 -0.99515,-0.7875 -1.75,-1.75 z m 18.53255,-15.5 -1.90499,-2.25 2.25,1.90499 c 1.2375,1.04774 2.25,2.06024 2.25,2.25 0,0.80025 -0.80479,0.20945 -2.59501,-1.90499 z m 28.54118,-1.5 -3.44617,-3.75 3.75,3.44617 c 2.0625,1.89539 3.75,3.58289 3.75,3.75 0,0.76362 -0.84622,0.0442 -4.05383,-3.44617 z m -247.073728,-15 c -1.243871,-1.58606 -1.208501,-1.62143 0.377555,-0.37756 0.9625,0.75485 1.75,1.54235 1.75,1.75 0,0.82304 -0.821186,0.29331 -2.127555,-1.37244 z m 24.051868,-6 -2.42431,-2.75 2.75,2.42431 c 2.57029,2.26589 3.20859,3.07569 2.42431,3.07569 -0.17912,0 -1.41662,-1.2375 -2.75,-2.75 z m 93.57569,-116.25 c 2.14824,-2.2 4.1309,-4 4.4059,-4 0.275,0 -1.25766,1.8 -3.4059,4 -2.14824,2.2 -4.1309,4 -4.4059,4 -0.275,0 1.25766,-1.8 3.4059,-4 z m 280.76903,-55.69299 c 0.97297,-0.25354 2.32297,-0.23687 3,0.037 0.67703,0.27393 -0.11903,0.48137 -1.76903,0.46099 -1.65,-0.0204 -2.20394,-0.2445 -1.23097,-0.49804 z"
       id="path481" /><path
       style="fill:#0057a8;fill-opacity:1;stroke:none"
       d="m 229.16703,362.49272 -2.42431,-2.75 2.75,2.42431 c 2.57029,2.26589 3.20859,3.07569 2.42431,3.07569 -0.17912,0 -1.41662,-1.2375 -2.75,-2.75 z m 119.94813,-8 c -1.24387,-1.58606 -1.2085,-1.62143 0.37756,-0.37756 1.66575,1.30637 2.19548,2.12756 1.37244,2.12756 -0.20765,0 -0.99515,-0.7875 -1.75,-1.75 z m -103.46745,-5.5 -1.90499,-2.25 2.25,1.90499 c 2.11444,1.79022 2.70524,2.59501 1.90499,2.59501 -0.18976,0 -1.20226,-1.0125 -2.25,-2.25 z m -31.32604,-6.33333 c 0.048,-1.16495 0.28494,-1.4019 0.60416,-0.60417 0.28887,0.72187 0.25335,1.58438 -0.0789,1.91667 -0.3323,0.33229 -0.56864,-0.25834 -0.52522,-1.3125 z m 56.32604,-2.66667 -1.90499,-2.25 2.25,1.90499 c 1.2375,1.04774 2.25,2.06024 2.25,2.25 0,0.80025 -0.80479,0.20945 -2.59501,-1.90499 z m 92.46745,-1.5 c -1.24387,-1.58606 -1.2085,-1.62143 0.37756,-0.37756 1.66575,1.30637 2.19548,2.12756 1.37244,2.12756 -0.20765,0 -0.99515,-0.7875 -1.75,-1.75 z m -77,-13 c -1.24387,-1.58606 -1.2085,-1.62143 0.37756,-0.37756 1.66575,1.30637 2.19548,2.12756 1.37244,2.12756 -0.20765,0 -0.99515,-0.7875 -1.75,-1.75 z m 26.56465,-7.5 -2.93709,-3.25 3.25,2.93709 c 1.7875,1.6154 3.25,3.0779 3.25,3.25 0,0.77256 -0.82513,0.0924 -3.56291,-2.93709 z m 17,-13 -2.93709,-3.25 3.25,2.93709 c 3.02946,2.73778 3.70965,3.56291 2.93709,3.56291 -0.1721,0 -1.6346,-1.4625 -3.25,-3.25 z m -237.032105,-5 -1.904988,-2.25 2.25,1.90499 c 2.114445,1.79022 2.705241,2.59501 1.904988,2.59501 -0.189757,0 -1.202257,-1.0125 -2.25,-2.25 z m 16.000005,-14 -1.90499,-2.25 2.25,1.90499 c 2.11444,1.79022 2.70524,2.59501 1.90499,2.59501 -0.18976,0 -1.20226,-1.0125 -2.25,-2.25 z m 109.59501,-67.12756 c 0,-0.20765 0.7875,-0.99515 1.75,-1.75 1.58606,-1.24387 1.62143,-1.2085 0.37756,0.37756 -1.30637,1.66575 -2.12756,2.19548 -2.12756,1.37244 z M 493.50647,118.52514 c 1.52006,-0.22986 3.77006,-0.22371 5,0.0136 1.22994,0.23736 -0.0138,0.42542 -2.76375,0.41792 -2.75,-0.008 -3.75631,-0.20172 -2.23625,-0.43157 z"
       id="path479" /><path
       style="fill:#0057a8;fill-opacity:1;stroke:none"
       d="m 307.11516,376.49272 c -1.24387,-1.58606 -1.2085,-1.62143 0.37756,-0.37756 1.66575,1.30637 2.19548,2.12756 1.37244,2.12756 -0.20765,0 -0.99515,-0.7875 -1.75,-1.75 z m -73.46745,-9.5 -1.90499,-2.25 2.25,1.90499 c 2.11444,1.79022 2.70524,2.59501 1.90499,2.59501 -0.18976,0 -1.20226,-1.0125 -2.25,-2.25 z m 139.34501,-0.41228 c 0.6875,-0.27741 1.8125,-0.27741 2.5,0 0.6875,0.27741 0.125,0.50439 -1.25,0.50439 -1.375,0 -1.9375,-0.22698 -1.25,-0.50439 z m -26.87756,-15.08772 c -1.24387,-1.58606 -1.2085,-1.62143 0.37756,-0.37756 1.66575,1.30637 2.19548,2.12756 1.37244,2.12756 -0.20765,0 -0.99515,-0.7875 -1.75,-1.75 z m -104,-6 c -1.24387,-1.58606 -1.2085,-1.62143 0.37756,-0.37756 0.9625,0.75485 1.75,1.54235 1.75,1.75 0,0.82304 -0.82119,0.29331 -2.12756,-1.37244 z m 32,-2 c -1.24387,-1.58606 -1.2085,-1.62143 0.37756,-0.37756 1.66575,1.30637 2.19548,2.12756 1.37244,2.12756 -0.20765,0 -0.99515,-0.7875 -1.75,-1.75 z m 180.44107,-11.99859 c 9.24743,-0.16519 24.09743,-0.16488 33,6.9e-4 8.90257,0.16557 1.33649,0.30072 -16.81351,0.30034 -18.15,-3.8e-4 -25.43392,-0.13584 -16.18649,-0.30103 z m -135.87642,-7.50141 -2.93709,-3.25 3.25,2.93709 c 3.02946,2.73778 3.70965,3.56291 2.93709,3.56291 -0.1721,0 -1.6346,-1.4625 -3.25,-3.25 z m -35.56465,-1.5 c -1.24387,-1.58606 -1.2085,-1.62143 0.37756,-0.37756 1.66575,1.30637 2.19548,2.12756 1.37244,2.12756 -0.20765,0 -0.99515,-0.7875 -1.75,-1.75 z m 174.87756,-11.99651 c 6.1875,-0.17544 16.3125,-0.17544 22.5,0 6.1875,0.17545 1.125,0.319 -11.25,0.319 -12.375,0 -17.4375,-0.14355 -11.25,-0.319 z m -361.345015,-6.50349 -1.904988,-2.25 2.25,1.90499 c 2.114445,1.79022 2.705241,2.59501 1.904988,2.59501 -0.189757,0 -1.202257,-1.0125 -2.25,-2.25 z m 227.032105,-5 -2.93709,-3.25 3.25,2.93709 c 1.7875,1.6154 3.25,3.0779 3.25,3.25 0,0.77256 -0.82513,0.0924 -3.56291,-2.93709 z m -219.51278,-17.5 -2.42431,-2.75 2.75,2.42431 c 2.57029,2.26589 3.20859,3.07569 2.42431,3.07569 -0.17912,0 -1.41662,-1.2375 -2.75,-2.75 z m 88.88819,-32.93311 c 0.72187,-0.28887 1.58437,-0.25335 1.91667,0.0789 0.33229,0.33229 -0.25834,0.56864 -1.3125,0.52522 -1.16495,-0.048 -1.4019,-0.28494 -0.60417,-0.60416 z m 85.59249,-48.56689 -1.90499,-2.25 2.25,1.90499 c 1.2375,1.04774 2.25,2.06024 2.25,2.25 0,0.80025 -0.80479,0.20945 -2.59501,-1.90499 z m -65.40499,-32.12756 c 0,-0.20765 0.7875,-0.99515 1.75,-1.75 1.58606,-1.24387 1.62143,-1.2085 0.37756,0.37756 -1.30637,1.66575 -2.12756,2.19548 -2.12756,1.37244 z m -26,-4 c 0,-0.20765 0.7875,-0.99515 1.75,-1.75 1.58606,-1.24387 1.62143,-1.2085 0.37756,0.37756 -1.30637,1.66575 -2.12756,2.19548 -2.12756,1.37244 z m 313.8125,-45.30555 c 0.72187,-0.28887 1.58438,-0.25335 1.91667,0.0789 0.33229,0.3323 -0.25834,0.56864 -1.3125,0.52522 -1.16495,-0.048 -1.4019,-0.28494 -0.60417,-0.60416 z"
       id="path477" /><path
       style="fill:#0057a8;fill-opacity:1;stroke:none"
       d="m 255.70513,388.99272 -4.96241,-5.25 5.25,4.96241 c 4.87839,4.61116 5.7086,5.53759 4.96241,5.53759 -0.15818,0 -2.52068,-2.3625 -5.25,-5.25 z m 77.78759,0.56067 c 0.9625,-0.25152 2.5375,-0.25152 3.5,0 0.9625,0.25153 0.175,0.45733 -1.75,0.45733 -1.925,0 -2.7125,-0.2058 -1.75,-0.45733 z m -91.7813,-14.56067 -5.9687,-6.25 6.25,5.9687 c 3.4375,3.28278 6.25,6.09528 6.25,6.25 0,0.7389 -0.98689,-0.16298 -6.5313,-5.9687 z m 61.45561,-2.5 -2.42431,-2.75 2.75,2.42431 c 2.57029,2.26589 3.20859,3.07569 2.42431,3.07569 -0.17912,0 -1.41662,-1.2375 -2.75,-2.75 z m 3.55484,-25.5 -8.97915,-9.25 9.25,8.97915 c 5.0875,4.93853 9.25,9.10103 9.25,9.25 0,0.72605 -1.18122,-0.38796 -9.52085,-8.97915 z m -88.07416,4 -1.90499,-2.25 2.25,1.90499 c 2.11444,1.79022 2.70524,2.59501 1.90499,2.59501 -0.18976,0 -1.20226,-1.0125 -2.25,-2.25 z m 60.54118,-2.5 -3.44617,-3.75 3.75,3.44617 c 2.0625,1.89539 3.75,3.58289 3.75,3.75 0,0.76362 -0.84622,0.0442 -4.05383,-3.44617 z m 54.03752,-10 -11.48369,-11.75 11.75,11.48369 c 6.4625,6.31603 11.75,11.60353 11.75,11.75 0,0.72017 -1.34959,-0.5696 -12.01631,-11.48369 z m -95.05938,3 -2.42431,-2.75 2.75,2.42431 c 2.57029,2.26589 3.20859,3.07569 2.42431,3.07569 -0.17912,0 -1.41662,-1.2375 -2.75,-2.75 z m 170.30769,-9.25 c 0,-1.925 0.2058,-2.7125 0.45733,-1.75 0.25152,0.9625 0.25152,2.5375 0,3.5 -0.25153,0.9625 -0.45733,0.175 -0.45733,-1.75 z m -147.35956,-2.75 c -1.24387,-1.58606 -1.2085,-1.62143 0.37756,-0.37756 0.9625,0.75485 1.75,1.54235 1.75,1.75 0,0.82304 -0.82119,0.29331 -2.12756,-1.37244 z m -144,-5 c -1.24387,-1.58606 -1.2085,-1.62143 0.37756,-0.37756 0.9625,0.75485 1.75,1.54235 1.75,1.75 0,0.82304 -0.82119,0.29331 -2.12756,-1.37244 z m 162.53255,-5.5 -1.90499,-2.25 2.25,1.90499 c 2.11444,1.79022 2.70524,2.59501 1.90499,2.59501 -0.18976,0 -1.20226,-1.0125 -2.25,-2.25 z m -176.40499,-8.25 c -2.42903,-2.475 -4.191419,-4.5 -3.916419,-4.5 0.275,0 2.487389,2.025 4.916419,4.5 2.42903,2.475 4.19142,4.5 3.91642,4.5 -0.275,0 -2.48739,-2.025 -4.91642,-4.5 z m 265.94617,-6.25 -3.44617,-3.75 3.75,3.44617 c 2.0625,1.89539 3.75,3.58289 3.75,3.75 0,0.76362 -0.84622,0.0442 -4.05383,-3.44617 z m -75.02186,-6 -2.42431,-2.75 2.75,2.42431 c 2.57029,2.26589 3.20859,3.07569 2.42431,3.07569 -0.17912,0 -1.41662,-1.2375 -2.75,-2.75 z m 22.52864,-6.5 -3.95295,-4.25 4.25,3.95295 c 3.95246,3.6762 4.70953,4.54705 3.95295,4.54705 -0.16338,0 -2.07588,-1.9125 -4.25,-4.25 z m 70.47136,1.5 -2.42431,-2.75 2.75,2.42431 c 2.57029,2.26589 3.20859,3.07569 2.42431,3.07569 -0.17912,0 -1.41662,-1.2375 -2.75,-2.75 z m -7.47136,-7.5 -3.95295,-4.25 4.25,3.95295 c 3.95246,3.6762 4.70953,4.54705 3.95295,4.54705 -0.16338,0 -2.07588,-1.9125 -4.25,-4.25 z m -281.506786,-10.5 -3.446167,-3.75 3.75,3.44617 c 3.490423,3.20761 4.209793,4.05383 3.446173,4.05383 -0.16711,0 -1.85461,-1.6875 -3.750006,-3.75 z m 268.926276,-1 c -1.24387,-1.58606 -1.2085,-1.62143 0.37756,-0.37756 1.66575,1.30637 2.19548,2.12756 1.37244,2.12756 -0.20765,0 -0.99515,-0.7875 -1.75,-1.75 z M 196.51175,248.54973 c 0.97297,-0.25354 2.32297,-0.23687 3,0.0371 0.67703,0.27393 -0.11903,0.48137 -1.76903,0.46099 -1.65,-0.0204 -2.20394,-0.2445 -1.23097,-0.49804 z m 73.60341,-28.05701 c -1.24387,-1.58606 -1.2085,-1.62143 0.37756,-0.37756 1.66575,1.30637 2.19548,2.12756 1.37244,2.12756 -0.20765,0 -0.99515,-0.7875 -1.75,-1.75 z m 12,-17 c -1.24387,-1.58606 -1.2085,-1.62143 0.37756,-0.37756 0.9625,0.75485 1.75,1.54235 1.75,1.75 0,0.82304 -0.82119,0.29331 -2.12756,-1.37244 z m -65.87244,-38.62756 c 0,-0.20765 0.7875,-0.99515 1.75,-1.75 1.58606,-1.24387 1.62143,-1.2085 0.37756,0.37756 -1.30637,1.66575 -2.12756,2.19548 -2.12756,1.37244 z m 148.07895,-14.20577 c 0.048,-1.16495 0.28494,-1.4019 0.60416,-0.60417 0.28887,0.72187 0.25335,1.58437 -0.0789,1.91667 -0.33229,0.33229 -0.56864,-0.25834 -0.52522,-1.3125 z m 124.67105,-11.07895 c 0.6875,-0.27741 1.8125,-0.27741 2.5,0 0.6875,0.27741 0.125,0.50439 -1.25,0.50439 -1.375,0 -1.9375,-0.22698 -1.25,-0.50439 z m -14.9375,-20.02083 c 0.72187,-0.28887 1.58438,-0.25335 1.91667,0.0789 0.33229,0.3323 -0.25834,0.56864 -1.3125,0.52522 -1.16495,-0.048 -1.4019,-0.28494 -0.60417,-0.60416 z M 14.055217,97.559608 c 0.721875,-0.288871 1.584375,-0.253344 1.916667,0.07895 0.332291,0.332292 -0.258334,0.568641 -1.3125,0.52522 -1.164943,-0.04798 -1.4019,-0.284941 -0.604167,-0.604167 z"
       id="path475" /><path
       style="fill:#0057a8;fill-opacity:1;stroke:none"
       d="m 153.29229,305.58373 c -7.35315,-1.08353 -21.48795,-6.27375 -28.36749,-10.41639 -5.94364,-3.57908 -33.199199,-23.91712 -56.114119,-41.87224 -30.82709,-24.15475 -46.7012,-37.81685 -61.3995698,-52.84373 -8.469767,-8.65906 -15.72692,-15.54143 -16.127008,-15.29417 -0.400089,0.24727 -1.228223,2.43839 -1.8402972,4.86916 -0.709845,2.81905 -2.230754,5.36022 -4.199721,7.017 l -3.086858,2.59742 h -34.472934 c -29.33639,0 -34.92428,-0.2334 -37.502052,-1.56642 -6.092195,-3.15039 -5.872094,0.75752 -5.865986,-104.151462 0.0036,-61.59229 0.367186,-97.0839997 1.018616,-99.4293097 2.045715,-7.3650673 6.085466,-8.1246923 30.975807,-5.8246083 45.918471,4.2432683 77.967783,11.60794831 89.804743,20.6364383 4.66107,3.5551697 6.08391,7.5010997 5.25923,14.5853597 l -0.66936,5.75 h 42.83673 42.836719 l 7.27925,-4.96062 c 16.38879,-11.16853 30.43142,-15.6408797 46.15269,-14.6988897 13.07962,0.7837097 22.14172,3.5123197 47.19996,14.2119597 20.23682,8.64094 49.57448,20.44755 50.80909,20.44755 0.27002,0 0.49095,-1.82958 0.49095,-4.06574 0,-5.93085 1.45246,-7.81142 8.50184,-11.00776 25.29617,-11.46984 79.58172,-20.9264997 120.1276,-20.9264997 12.22013,0 12.37047,0.0281 15.60478,2.9179697 l 3.26578,2.91797 V 114.64078 214.80484 l -3.26578,2.91797 -3.26577,2.91797 h -35.03389 c -28.7761,0 -35.53873,-0.26107 -37.86027,-1.46158 -2.8153,-1.45585 -5.13652,-5.8228 -6.53183,-12.28842 -0.38576,-1.7875 -0.89503,-3.25 -1.13173,-3.25 -0.23669,0 -4.20632,2.51285 -8.82138,5.58412 l -8.39103,5.58411 -0.35935,8.16589 c -0.2684,6.09889 -0.97633,9.4249 -2.79677,13.1398 -5.06648,10.33897 -16.69236,18.4169 -27.83694,19.34176 -4.9683,0.41231 -5.41546,0.67603 -7.25272,4.27734 -2.82941,5.54611 -9.49689,11.54574 -16.87368,15.18352 -5.58092,2.75217 -7.69476,3.21767 -16.15446,3.55746 l -9.73333,0.39094 -3.15543,4.86966 c -7.98154,12.31761 -23.58132,19.40036 -37.18895,16.88486 -5.09862,-0.94253 -6.00956,-0.81512 -10.57824,1.4796 -4.17971,2.09935 -16.16721,4.767 -19.76845,4.39919 -0.55,-0.0562 -3.48327,-0.46806 -6.51839,-0.9153 z m -7.2147,-40.69295 c -24.69408,-24.85166 -27.76691,-28.43658 -27.76691,-32.39427 0,-7.81111 7.71584,-13.21891 14.03524,-9.83687 1.04707,0.56038 12.37999,11.64719 25.18426,24.63736 27.81746,28.22132 33.65779,33.34378 38.01669,33.34378 6.18736,0 16.76381,-7.42649 16.76381,-11.77108 0,-0.59526 -9.05878,-10.22778 -20.13063,-21.40561 -28.69037,-28.96498 -31.1421,-31.8797 -31.1421,-37.0231 0,-7.84897 8.76867,-12.42172 15.42696,-8.04495 1.45982,0.95961 10.23482,9.77429 19.5,19.58818 18.4074,19.49755 35.55649,35.42027 39.10858,36.31184 6.30265,1.58196 17.81635,-3.24145 20.194,-8.45984 1.07088,-2.35033 -0.30707,-3.90707 -29.43649,-33.25592 -17.86984,-18.00444 -31.13686,-32.17086 -31.94922,-34.1151 -0.76408,-1.82871 -1.15176,-4.56725 -0.8615,-6.08564 0.77914,-4.07577 5.64189,-7.73878 10.27346,-7.73878 3.69754,0 4.96236,1.13648 36.67328,32.95216 22.10871,22.18174 33.75389,33.16951 35.6285,33.61715 4.01343,0.95837 11.46221,-3.10498 13.84717,-7.55371 2.60049,-4.85075 2.32372,-8.69583 -1.04486,-14.5156 -7.43893,-12.85198 -21.51526,-26.09642 -70.08715,-65.94506 -18.975,-15.56719 -37.86657,-31.28545 -41.98128,-34.92946 -4.1147,-3.64401 -7.78008,-6.62548 -8.14529,-6.62548 -0.3652,0 -3.74863,1.30725 -7.51872,2.90499 -3.77009,1.59774 -8.76115,3.41346 -11.09124,4.03492 -3.15566,0.84164 -6.08966,2.98079 -11.5,8.38449 -12.09795,12.08312 -22.50733,16.68477 -37.69497,16.66373 -33.610859,-0.0466 -45.534079,-21.91127 -29.713339,-54.488132 4.59968,-9.47133 13.36841,-22.43798 19.44224,-28.75 l 3.6085,-3.75 h -33.1839 -33.1839 l -0.51253,2.25 c -0.28189,1.2375 -1.44058,6.525 -2.57487,11.75 -3.76311,17.3345 -11.8388,48.527792 -18.5530998,71.663522 -3.645104,12.56006 -6.68824098,23.60201 -6.762531,24.53767 -0.07785,0.98044 8.338321,10.24239 19.8649308,21.86125 15.94269,16.07029 25.37593,24.47039 46.5,41.4073 31.54945,25.2958 66.390289,51.66027 72.274729,54.69112 7.04298,3.62758 17.90955,6.74706 23.66794,6.7944 l 5.44267,0.0447 z M 395.31068,114.76633 V 28.891878 l -9.25,0.43972 c -15.93403,0.75747 -38.31825,3.25482 -52.55487,5.86342 -12.95576,2.37391 -32.86489,7.22911 -38.62718,9.41993 -2.52301,0.95924 -2.57173,1.11785 -1.17377,3.82121 7.79123,15.06657 40.94185,104.726952 52.48565,141.954622 l 3.17839,10.25 h 22.97089 22.97089 z m -82.52055,74.36306 9.33926,-6.51139 -6.47397,-18.73861 c -8.59109,-24.86657 -21.97731,-61.51327 -28.5788,-78.238612 l -5.32844,-13.5 -6.96875,-2.70313 c -33.9595,-13.17267 -48.89271,-19.14971 -67.00616,-26.81934 -24.9807,-10.57738 -31.48607,-12.3132 -44.14354,-11.77877 -8.5426,0.36068 -9.8289,0.70976 -18.5,5.02058 -10.59885,5.26918 -23.91883,15.85082 -36.38729,28.90672 -14.672319,15.36359 -23.907279,31.72118 -23.922939,42.373942 l -0.009,6 4,2 c 3,1.5 6,2 11.999999,2 6.9715,0 8.67805,-0.37566 13.27407,-2.92203 5.00208,-2.77133 10.00446,-7.52428 16.72593,-15.891922 2.56269,-3.19032 3.87463,-3.89036 9,-4.80231 3.3,-0.58716 10.725,-2.99237 16.5,-5.34491 5.775,-2.35253 11.64936,-4.54762 13.05412,-4.87797 3.61709,-0.85061 7.27548,1.45296 18.62631,11.7284 5.40076,4.88909 18.14457,15.665022 28.31957,23.946522 48.85235,39.76124 64.88893,53.83754 78.50408,68.90786 3.84775,4.25901 7.36496,7.74651 7.81602,7.75 0.45105,0.003 5.02276,-2.92376 10.15935,-6.50503 z M -25.434701,169.14078 C -9.2042948,117.47716 7.1672212,52.729648 9.9180012,29.324738 l 0.6665898,-5.67157 -3.6701498,-1.53348 c -5.201938,-2.17351 -22.0319652,-6.09759 -36.1037632,-8.41794 -12.000269,-1.97876 -38.161614,-5.0609697 -42.956805,-5.0609697 h -2.543195 V 93.659208 178.67764 l 23.213611,-0.26843 23.213611,-0.26843 z"
       id="path473" /></g></svg>
