<?xml version="1.0" encoding="UTF-8" standalone="no"?>
<!-- Created with Inkscape (http://www.inkscape.org/) -->

<svg
   version="1.1"
   id="svg182"
   width="512"
   height="512"
   viewBox="0 0 512 512"
   sodipodi:docname="3d_rojo_marron.svg"
   inkscape:version="1.2.2 (732a01da63, 2022-12-09)"
   xmlns:inkscape="http://www.inkscape.org/namespaces/inkscape"
   xmlns:sodipodi="http://sodipodi.sourceforge.net/DTD/sodipodi-0.dtd"
   xmlns="http://www.w3.org/2000/svg"
   xmlns:svg="http://www.w3.org/2000/svg">
  <defs
     id="defs186" />
  <sodipodi:namedview
     id="namedview184"
     pagecolor="#ffffff"
     bordercolor="#000000"
     borderopacity="0.25"
     inkscape:showpageshadow="2"
     inkscape:pageopacity="0.0"
     inkscape:pagecheckerboard="0"
     inkscape:deskcolor="#d1d1d1"
     showgrid="false"
     inkscape:zoom="0.8046875"
     inkscape:cx="412.58252"
     inkscape:cy="344.23301"
     inkscape:window-width="1920"
     inkscape:window-height="1027"
     inkscape:window-x="1912"
     inkscape:window-y="-8"
     inkscape:window-maximized="1"
     inkscape:current-layer="g188" />
  <g
     inkscape:groupmode="layer"
     inkscape:label="Image"
     id="g188"
     style="display:inline">
    <path
       style="fill:#aa0000"
       d="m 377.5,484 c 0.99549,-1.1 2.03498,-2 2.30998,-2 0.275,0 -0.31449,0.9 -1.30998,2 -0.99549,1.1 -2.03498,2 -2.30998,2 -0.275,0 0.31449,-0.9 1.30998,-2 z M 346,429.5 c 1.29175,-1.375 2.57363,-2.5 2.84863,-2.5 0.275,0 -0.55688,1.125 -1.84863,2.5 -1.29175,1.375 -2.57363,2.5 -2.84863,2.5 -0.275,0 0.55688,-1.125 1.84863,-2.5 z m 74.07895,-21.08333 c 0.048,-1.16495 0.28494,-1.4019 0.60416,-0.60417 0.28887,0.72187 0.25335,1.58438 -0.0789,1.91667 -0.33229,0.33229 -0.56864,-0.25834 -0.52522,-1.3125 z M 405.19495,400.5 c 0.0204,-1.65 0.2445,-2.20394 0.49804,-1.23097 0.25354,0.97297 0.23687,2.32297 -0.0371,3 -0.27393,0.67703 -0.48137,-0.11903 -0.46099,-1.76903 z m -126.72385,-62 c 1.1e-4,-35.2 0.12544,-49.45491 0.2785,-31.67757 0.15306,17.77734 0.15297,46.57734 -2.1e-4,64 C 278.59621,388.24509 278.47098,373.7 278.4711,338.5 Z m 84.60785,40.91667 c 0.048,-1.16495 0.28494,-1.4019 0.60416,-0.60417 0.28887,0.72187 0.25335,1.58438 -0.0789,1.91667 -0.33229,0.33229 -0.56864,-0.25834 -0.52522,-1.3125 z M 90.872445,373.25 c -1.243871,-1.58606 -1.208501,-1.62143 0.377555,-0.37756 0.9625,0.75485 1.75,1.54235 1.75,1.75 0,0.82304 -0.821186,0.29331 -2.127555,-1.37244 z M 335.46053,329 c 0,-25.025 0.12983,-35.2625 0.28851,-22.75 0.15868,12.5125 0.15868,32.9875 0,45.5 -0.15868,12.5125 -0.28851,2.275 -0.28851,-22.75 z m 43.81183,41 c 0,-2.475 0.19502,-3.4875 0.43337,-2.25 0.23836,1.2375 0.23836,3.2625 0,4.5 -0.23835,1.2375 -0.43337,0.225 -0.43337,-2.25 z m 82.88553,0 c 0,-1.375 0.22698,-1.9375 0.50439,-1.25 0.27741,0.6875 0.27741,1.8125 0,2.5 -0.27741,0.6875 -0.50439,0.125 -0.50439,-1.25 z M 83.946167,366.25 80.5,362.5 l 3.75,3.44617 C 87.740419,369.15378 88.459787,370 87.696167,370 c -0.167108,0 -1.854608,-1.6875 -3.75,-3.75 z M 379.28601,355.5 c 0.008,-2.75 0.20172,-3.75631 0.43157,-2.23625 0.22986,1.52006 0.22371,3.77006 -0.0136,5 -0.23736,1.22994 -0.42542,-0.0138 -0.41792,-2.76375 z m -16.20706,-11.08333 c 0.048,-1.16495 0.28494,-1.4019 0.60416,-0.60417 0.28887,0.72187 0.25335,1.58438 -0.0789,1.91667 -0.33229,0.33229 -0.56864,-0.25834 -0.52522,-1.3125 z m 99.116,-4.91667 c 0.0204,-1.65 0.2445,-2.20394 0.49804,-1.23097 0.25354,0.97297 0.23687,2.32297 -0.0371,3 -0.27393,0.67703 -0.48137,-0.11903 -0.46099,-1.76903 z m 14.96294,-8.5 c 0,-1.375 0.22698,-1.9375 0.50439,-1.25 0.27741,0.6875 0.27741,1.8125 0,2.5 -0.27741,0.6875 -0.50439,0.125 -0.50439,-1.25 z M 98.924314,323.25 96.5,320.5 l 2.75,2.42431 c 2.57029,2.26589 3.20859,3.07569 2.42431,3.07569 -0.17912,0 -1.41662,-1.2375 -2.749996,-2.75 z M 49.078947,251.41667 c 0.04798,-1.16495 0.284941,-1.4019 0.604167,-0.60417 0.288871,0.72187 0.253344,1.58437 -0.07895,1.91667 -0.332292,0.33229 -0.568641,-0.25834 -0.52522,-1.3125 z m 108.000003,-8 c 0.048,-1.16495 0.28494,-1.4019 0.60416,-0.60417 0.28887,0.72187 0.25335,1.58437 -0.0789,1.91667 -0.3323,0.33229 -0.56864,-0.25834 -0.52522,-1.3125 z M 39,222.62244 c 0,-0.20765 0.7875,-0.99515 1.75,-1.75 1.586056,-1.24387 1.621426,-1.2085 0.377555,0.37756 C 39.821186,222.91575 39,223.44548 39,222.62244 Z m 86.8125,-40.30555 c 0.72187,-0.28887 1.58438,-0.25335 1.91667,0.0789 0.33229,0.33229 -0.25834,0.56864 -1.3125,0.52522 -1.16495,-0.048 -1.4019,-0.28494 -0.60417,-0.60416 z M 236.40709,156 c 0,-9.075 0.1516,-12.7875 0.3369,-8.25 0.18529,4.5375 0.18529,11.9625 0,16.5 -0.1853,4.5375 -0.3369,0.825 -0.3369,-8.25 z M 61.872445,119.25 c -1.243871,-1.58606 -1.208501,-1.62143 0.377555,-0.37756 0.9625,0.75485 1.75,1.54235 1.75,1.75 0,0.82304 -0.821186,0.29331 -2.127555,-1.37244 z m 57.999995,-1 c -1.24387,-1.58606 -1.2085,-1.62143 0.37756,-0.37756 0.9625,0.75485 1.75,1.54235 1.75,1.75 0,0.82304 -0.82119,0.29331 -2.12756,-1.37244 z m 9.05187,-13 -2.42431,-2.75 2.75,2.42431 c 1.5125,1.33338 2.75,2.57088 2.75,2.75 0,0.78428 -0.8098,0.14598 -3.07569,-2.42431 z m 16.94813,-41 C 144.62857,62.663944 144.66394,62.628574 146.25,63.872445 147.91575,65.178814 148.44548,66 147.62244,66 c -0.20765,0 -0.99515,-0.7875 -1.75,-1.75 z m -10,-10 C 134.62857,52.663944 134.66394,52.628574 136.25,53.872445 137.91575,55.178814 138.44548,56 137.62244,56 c -0.20765,0 -0.99515,-0.7875 -1.75,-1.75 z M 189,38.5 c -2.42903,-2.475 -4.19142,-4.5 -3.91642,-4.5 0.275,0 2.48739,2.025 4.91642,4.5 2.42903,2.475 4.19142,4.5 3.91642,4.5 -0.275,0 -2.48739,-2.025 -4.91642,-4.5 z"
       id="path314"
       sodipodi:nodetypes="sssssssssssssssssssssssssssssssssssssssssssssscssssssssssssssssssssssscssssssssssssssssscssccssssssssssssscssssssssssssssss" />
    <path
       style="fill:#aa0000"
       d="m 327.8125,451.31689 c 0.72187,-0.28887 1.58438,-0.25335 1.91667,0.0789 0.33229,0.33229 -0.25834,0.56864 -1.3125,0.52522 -1.16495,-0.048 -1.4019,-0.28494 -0.60417,-0.60416 z m 2.45653,-15.00988 c 0.97297,-0.25354 2.32297,-0.23687 3,0.0371 0.67703,0.27393 -0.11903,0.48137 -1.76903,0.46099 -1.65,-0.0204 -2.20394,-0.2445 -1.23097,-0.49804 z m 74.80992,-31.89034 c 0.048,-1.16495 0.28494,-1.4019 0.60416,-0.60417 0.28887,0.72187 0.25335,1.58438 -0.0789,1.91667 -0.33229,0.33229 -0.56864,-0.25834 -0.52522,-1.3125 z M 335.19495,376.5 c 0.0204,-1.65 0.2445,-2.20394 0.49804,-1.23097 0.25354,0.97297 0.23687,2.32297 -0.0371,3 -0.27393,0.67703 -0.48137,-0.11903 -0.46099,-1.76903 z m 126.884,-3.08333 c 0.048,-1.16495 0.28494,-1.4019 0.60416,-0.60417 0.28887,0.72187 0.25335,1.58438 -0.0789,1.91667 -0.33229,0.33229 -0.56864,-0.25834 -0.52522,-1.3125 z M 379.232,363 c 0,-1.925 0.2058,-2.7125 0.45733,-1.75 0.25152,0.9625 0.25152,2.5375 0,3.5 -0.25153,0.9625 -0.45733,0.175 -0.45733,-1.75 z M 142,330.62244 c 0,-0.20765 0.7875,-0.99515 1.75,-1.75 1.58606,-1.24387 1.62143,-1.2085 0.37756,0.37756 C 142.82119,330.91575 142,331.44548 142,330.62244 Z M 221.46342,282 c 0,-27.225 0.1286,-38.3625 0.28576,-24.75 0.15717,13.6125 0.15717,35.8875 0,49.5 -0.15716,13.6125 -0.28576,2.475 -0.28576,-24.75 z m -95.65092,39.31689 c 0.72187,-0.28887 1.58438,-0.25335 1.91667,0.0789 0.33229,0.33229 -0.25834,0.56864 -1.3125,0.52522 -1.16495,-0.048 -1.4019,-0.28494 -0.60417,-0.60416 z m 201,-45 c 0.72187,-0.28887 1.58438,-0.25335 1.91667,0.0789 0.33229,0.33229 -0.25834,0.56864 -1.3125,0.52522 -1.16495,-0.048 -1.4019,-0.28494 -0.60417,-0.60416 z M 236.46342,221 c 0,-27.225 0.1286,-38.3625 0.28576,-24.75 0.15717,13.6125 0.15717,35.8875 0,49.5 -0.15716,13.6125 -0.28576,2.475 -0.28576,-24.75 z M 62.872445,236.25 c -1.243871,-1.58606 -1.208501,-1.62143 0.377555,-0.37756 0.9625,0.75485 1.75,1.54235 1.75,1.75 0,0.82304 -0.821186,0.29331 -2.127555,-1.37244 z M 92,182.62244 c 0,-0.20765 0.7875,-0.99515 1.75,-1.75 1.586056,-1.24387 1.621426,-1.2085 0.377555,0.37756 C 92.821186,182.91575 92,183.44548 92,182.62244 Z M 140.94617,59.25 137.5,55.5 l 3.75,3.446167 c 2.0625,1.895392 3.75,3.582892 3.75,3.75 0,0.76362 -0.84622,0.04425 -4.05383,-3.446167 z M 52.5,45 c 0.995486,-1.1 2.034975,-2 2.309975,-2 0.275,0 -0.314489,0.9 -1.309975,2 -0.995486,1.1 -2.034975,2 -2.309975,2 -0.275,0 0.314489,-0.9 1.309975,-2 z m 31.769032,1.307009 c 0.972967,-0.253543 2.322967,-0.236869 3,0.03705 C 87.946064,46.617986 87.15,46.825431 85.5,46.805051 83.85,46.784672 83.296064,46.560553 84.269032,46.307009 Z"
       id="path312"
       sodipodi:nodetypes="sssssssssssssssssssssssssssssssssssssssssssssssssssssssssssscssssssssssss" />
    <path
       style="fill:#aa0000"
       d="M 237.40499,458.75 235.5,456.5 l 2.25,1.90499 c 2.11444,1.79022 2.70524,2.59501 1.90499,2.59501 -0.18976,0 -1.20226,-1.0125 -2.25,-2.25 z m 93.40751,-7.43311 c 0.72187,-0.28887 1.58438,-0.25335 1.91667,0.0789 0.33229,0.33229 -0.25834,0.56864 -1.3125,0.52522 -1.16495,-0.048 -1.4019,-0.28494 -0.60417,-0.60416 z M 248.40499,448.75 246.5,446.5 l 2.25,1.90499 c 2.11444,1.79022 2.70524,2.59501 1.90499,2.59501 -0.18976,0 -1.20226,-1.0125 -2.25,-2.25 z M 263.39739,399 c 0,-7.975 0.1553,-11.2375 0.34512,-7.25 0.18981,3.9875 0.18981,10.5125 0,14.5 -0.18982,3.9875 -0.34512,0.725 -0.34512,-7.25 z m 156.68156,4.41667 c 0.048,-1.16495 0.28494,-1.4019 0.60416,-0.60417 0.28887,0.72187 0.25335,1.58438 -0.0789,1.91667 -0.33229,0.33229 -0.56864,-0.25834 -0.52522,-1.3125 z M 320.39739,365 c 0,-7.975 0.1553,-11.2375 0.34512,-7.25 0.18981,3.9875 0.18981,10.5125 0,14.5 -0.18982,3.9875 -0.34512,0.725 -0.34512,-7.25 z m 156.7605,8 c 0,-1.375 0.22698,-1.9375 0.50439,-1.25 0.27741,0.6875 0.27741,1.8125 0,2.5 -0.27741,0.6875 -0.50439,0.125 -0.50439,-1.25 z M 236.46342,319 c 0,-27.225 0.1286,-38.3625 0.28576,-24.75 0.15717,13.6125 0.15717,35.8875 0,49.5 -0.15716,13.6125 -0.28576,2.475 -0.28576,-24.75 z m 127.84645,43.5 c 0.006,-3.3 0.1923,-4.52944 0.41486,-2.73209 0.22256,1.79735 0.21797,4.49735 -0.0102,6 -0.22818,1.50265 -0.41027,0.0321 -0.40466,-3.26791 z m 112.76908,-26.08333 c 0.048,-1.16495 0.28494,-1.4019 0.60416,-0.60417 0.28887,0.72187 0.25335,1.58438 -0.0789,1.91667 -0.33229,0.33229 -0.56864,-0.25834 -0.52522,-1.3125 z m -15,-3 c 0.048,-1.16495 0.28494,-1.4019 0.60416,-0.60417 0.28887,0.72187 0.25335,1.58438 -0.0789,1.91667 -0.33229,0.33229 -0.56864,-0.25834 -0.52522,-1.3125 z M 323.87244,237.25 c -1.24387,-1.58606 -1.2085,-1.62143 0.37756,-0.37756 1.66575,1.30637 2.19548,2.12756 1.37244,2.12756 -0.20765,0 -0.99515,-0.7875 -1.75,-1.75 z M 163,235.62244 c 0,-0.20765 0.7875,-0.99515 1.75,-1.75 1.58606,-1.24387 1.62143,-1.2085 0.37756,0.37756 C 163.82119,235.91575 163,236.44548 163,235.62244 Z M 319.87244,233.25 c -1.24387,-1.58606 -1.2085,-1.62143 0.37756,-0.37756 0.9625,0.75485 1.75,1.54235 1.75,1.75 0,0.82304 -0.82119,0.29331 -2.12756,-1.37244 z m 15,-6 c -1.24387,-1.58606 -1.2085,-1.62143 0.37756,-0.37756 1.66575,1.30637 2.19548,2.12756 1.37244,2.12756 -0.20765,0 -0.99515,-0.7875 -1.75,-1.75 z m -4.46745,-4.5 -1.90499,-2.25 2.25,1.90499 c 1.2375,1.04774 2.25,2.06024 2.25,2.25 0,0.80025 -0.80479,0.20945 -2.59501,-1.90499 z M 142,191.62244 c 0,-0.20765 0.7875,-0.99515 1.75,-1.75 1.58606,-1.24387 1.62143,-1.2085 0.37756,0.37756 C 142.82119,191.91575 142,192.44548 142,191.62244 Z M 70.8125,139.31689 c 0.721875,-0.28887 1.584375,-0.25335 1.916667,0.0789 0.332291,0.33229 -0.258334,0.56864 -1.3125,0.52522 -1.164943,-0.048 -1.4019,-0.28494 -0.604167,-0.60416 z"
       id="path310"
       sodipodi:nodetypes="scssssssssscsssssssssssssssssssssssscsscssssssssssssssssssssssssssscssssssscsscc" />
    <path
       style="fill:#aa0000"
       d="m 446,462.62244 c 0,-0.20765 0.7875,-0.99515 1.75,-1.75 1.58606,-1.24387 1.62143,-1.2085 0.37756,0.37756 C 446.82119,462.91575 446,463.44548 446,462.62244 Z M 236.43674,394 c 0,-14.575 0.1398,-20.5375 0.31066,-13.25 0.17086,7.2875 0.17086,19.2125 0,26.5 -0.17086,7.2875 -0.31066,1.325 -0.31066,-13.25 z m 27.01344,-43.5 c 3.4e-4,-19.25 0.13469,-26.98347 0.29856,-17.1855 0.16386,9.79798 0.16358,25.54798 -6.2e-4,35 -0.16421,9.45203 -0.29828,1.4355 -0.29794,-17.8145 z M 364.15789,370 c 0,-1.375 0.22698,-1.9375 0.50439,-1.25 0.27741,0.6875 0.27741,1.8125 0,2.5 -0.27741,0.6875 -0.50439,0.125 -0.50439,-1.25 z m 0,-15 c 0,-1.375 0.22698,-1.9375 0.50439,-1.25 0.27741,0.6875 0.27741,1.8125 0,2.5 -0.27741,0.6875 -0.50439,0.125 -0.50439,-1.25 z m -43.7291,-26.5 c 7e-4,-12.65 0.14401,-17.68711 0.31847,-11.19358 0.17445,6.49353 0.17388,16.84353 -10e-4,23 -0.17516,6.15647 -0.31789,0.84358 -0.31719,-11.80642 z M 72.872445,225.25 c -1.243871,-1.58606 -1.208501,-1.62143 0.377555,-0.37756 0.9625,0.75485 1.75,1.54235 1.75,1.75 0,0.82304 -0.821186,0.29331 -2.127555,-1.37244 z M 231.8125,98.316886 c 0.72187,-0.288871 1.58437,-0.253344 1.91667,0.07895 0.33229,0.332292 -0.25834,0.568641 -1.3125,0.52522 -1.16495,-0.04798 -1.4019,-0.284941 -0.60417,-0.604167 z M 130.43709,69.75 127.5,66.5 l 3.25,2.937091 c 1.7875,1.6154 3.25,3.0779 3.25,3.25 0,0.772561 -0.82513,0.09236 -3.56291,-2.937091 z M 63.5,55 c 0.995486,-1.1 2.034975,-2 2.309975,-2 0.275,0 -0.314489,0.9 -1.309975,2 -0.995486,1.1 -2.034975,2 -2.309975,2 -0.275,0 0.314489,-0.9 1.309975,-2 z"
       id="path308"
       sodipodi:nodetypes="sssssssssssssssssssscscccsssssssssscssssssss" />
    <path
       style="fill:#aa0000"
       d="m 350.8125,511.31689 c 0.72187,-0.28887 1.58438,-0.25335 1.91667,0.0789 0.33229,0.33229 -0.25834,0.56864 -1.3125,0.52522 -1.16495,-0.048 -1.4019,-0.28494 -0.60417,-0.60416 z m -87.73355,-95.90022 c 0.048,-1.16495 0.28494,-1.4019 0.60416,-0.60417 0.28887,0.72187 0.25335,1.58438 -0.0789,1.91667 -0.33229,0.33229 -0.56864,-0.25834 -0.52522,-1.3125 z M 94.924314,356.25 92.5,353.5 l 2.75,2.42431 C 97.820289,358.1902 98.458588,359 97.674314,359 c -0.179127,0 -1.416627,-1.2375 -2.75,-2.75 z M 477.07895,341.41667 c 0.048,-1.16495 0.28494,-1.4019 0.60416,-0.60417 0.28887,0.72187 0.25335,1.58438 -0.0789,1.91667 -0.33229,0.33229 -0.56864,-0.25834 -0.52522,-1.3125 z M 263.44306,286.5 c -4.5e-4,-16.5 0.13655,-23.39031 0.30444,-15.31181 0.16789,8.07851 0.16826,21.57851 8.2e-4,30 -0.16745,8.4215 -0.30481,1.81181 -0.30526,-14.68819 z m 56.9387,8 c 0.002,-6.6 0.16382,-9.16987 0.35965,-5.71081 0.19583,3.45905 0.19422,8.85905 -0.004,12 -0.19781,3.14094 -0.35803,0.31081 -0.35606,-6.28919 z M 117.92431,254.25 115.5,251.5 l 2.75,2.42431 c 2.57029,2.26589 3.20859,3.07569 2.42431,3.07569 -0.17912,0 -1.41662,-1.2375 -2.75,-2.75 z m -67.051865,-125 c -1.243871,-1.58606 -1.208501,-1.62143 0.377555,-0.37756 0.9625,0.75485 1.75,1.54235 1.75,1.75 0,0.82304 -0.821186,0.29331 -2.127555,-1.37244 z m 151.999995,-98 C 201.62857,29.663944 201.66394,29.628574 203.25,30.872445 204.91575,32.178814 205.44548,33 204.62244,33 c -0.20765,0 -0.99515,-0.7875 -1.75,-1.75 z"
       id="path306"
       sodipodi:nodetypes="ssssssssssscsssssssssssscscccscsssssssssss" />
    <path
       style="fill:#aa0000"
       d="m 356.5,440 c 0.99549,-1.1 2.03498,-2 2.30998,-2 0.275,0 -0.31449,0.9 -1.30998,2 -0.99549,1.1 -2.03498,2 -2.30998,2 -0.275,0 0.31449,-0.9 1.30998,-2 z M 345,431.62244 c 0,-0.20765 0.7875,-0.99515 1.75,-1.75 1.58606,-1.24387 1.62143,-1.2085 0.37756,0.37756 C 345.82119,431.91575 345,432.44548 345,431.62244 Z M 141.75,382.33772 c 0.6875,-0.27741 1.8125,-0.27741 2.5,0 0.6875,0.27741 0.125,0.50439 -1.25,0.50439 -1.375,0 -1.9375,-0.22698 -1.25,-0.50439 z M 463.30987,355.5 c 0.006,-3.3 0.1923,-4.52944 0.41486,-2.73209 0.22256,1.79735 0.21797,4.49735 -0.0102,6 -0.22818,1.50265 -0.41027,0.0321 -0.40466,-3.26791 z M 99.437091,322.75 96.5,319.5 l 3.25,2.93709 c 3.02946,2.73778 3.70965,3.56291 2.93709,3.56291 -0.1721,0 -1.6346,-1.4625 -3.249999,-3.25 z m 9.487219,-10.5 -2.42431,-2.75 2.75,2.42431 c 2.57029,2.26589 3.20859,3.07569 2.42431,3.07569 -0.17912,0 -1.41662,-1.2375 -2.75,-2.75 z M 263.44388,227 c 0,-16.775 0.13684,-23.6375 0.3041,-15.25 0.16726,8.3875 0.16726,22.1125 0,30.5 -0.16726,8.3875 -0.3041,1.525 -0.3041,-15.25 z M 48.194949,242.5 c 0.02038,-1.65 0.244498,-2.20394 0.498042,-1.23097 0.253543,0.97297 0.236869,2.32297 -0.03705,3 C 48.382014,244.94606 48.174569,244.15 48.194949,242.5 Z M 159,239.62244 c 0,-0.20765 0.7875,-0.99515 1.75,-1.75 1.58606,-1.24387 1.62143,-1.2085 0.37756,0.37756 C 159.82119,239.91575 159,240.44548 159,239.62244 Z M 112.40499,231.75 110.5,229.5 l 2.25,1.90499 c 2.11444,1.79022 2.70524,2.59501 1.90499,2.59501 -0.18976,0 -1.20226,-1.0125 -2.25,-2.25 z m 39.67396,-66.33333 c 0.048,-1.16495 0.28494,-1.4019 0.60416,-0.60417 0.28887,0.72187 0.25335,1.58437 -0.0789,1.91667 -0.3323,0.33229 -0.56864,-0.25834 -0.52522,-1.3125 z M 129.87244,107.25 c -1.24387,-1.58606 -1.2085,-1.62143 0.37756,-0.37756 1.66575,1.30637 2.19548,2.12756 1.37244,2.12756 -0.20765,0 -0.99515,-0.7875 -1.75,-1.75 z m -4,-4 c -1.24387,-1.58606 -1.2085,-1.62143 0.37756,-0.37756 0.9625,0.75485 1.75,1.54235 1.75,1.75 0,0.82304 -0.82119,0.29331 -2.12756,-1.37244 z M 189.40499,37.75 187.5,35.5 l 2.25,1.904988 C 191.86444,39.195206 192.45524,40 191.65499,40 c -0.18976,0 -1.20226,-1.0125 -2.25,-2.25 z m 9.51932,-10.5 -2.42431,-2.75 2.75,2.424314 C 201.82029,29.190201 202.45859,30 201.67431,30 c -0.17912,0 -1.41662,-1.2375 -2.75,-2.75 z"
       id="path304"
       sodipodi:nodetypes="ssssssssssssscsscscsssscsssssssssssssssscssscssccssssssssscsssscsss" />
    <path
       style="fill:#aa0000"
       d="m 340.33479,510.86478 c -14.46459,-1.30265 -22.0718,-4.7302 -66.70851,-30.05661 -32.44257,-18.40757 -37.15686,-21.97814 -43.33435,-32.82115 -1.71934,-3.01786 -4.17589,-8.63702 -5.459,-12.48702 L 222.5,428.5 V 280 131.5 l 2.15268,-4 c 2.73481,-5.08167 5.84461,-7.97418 10.79863,-10.0441 2.15821,-0.90176 16.01624,-8.63752 30.79562,-17.19059 25.27978,-14.629809 27.17967,-15.551024 32.07215,-15.551024 3.43517,0 6.72479,0.77433 9.69073,2.28106 7.70202,3.912703 63.1768,36.107484 69.49019,40.328614 37.89234,25.33483 68.40002,71.0762 85.8218,128.67604 21.45037,70.91911 18.40672,155.73655 -6.96782,194.17315 -6.24813,9.46448 -13.06042,15.17668 -28.96122,24.28438 -7.64102,4.37664 -22.62185,13.03489 -33.29073,19.24057 -10.66888,6.20567 -22.2167,12.41071 -25.66182,13.78897 -7.4344,2.97423 -18.2082,4.26903 -28.10542,3.37771 z m 20.23707,-15.52187 c 23.04449,-7.74873 38.3502,-34.28072 44.0062,-76.28341 2.0807,-15.45177 2.04858,-49.94091 -0.0643,-69.0595 -2.85591,-25.84161 -9.49965,-54.4531 -18.03614,-77.67316 -8.37803,-22.78904 -24.60621,-51.9453 -38.12349,-68.49434 -7.88384,-9.65208 -24.73507,-25.52484 -33.38448,-31.446 -7.49737,-5.13251 -63.17293,-37.6155 -70.24468,-40.98312 -3.72882,-1.77569 -3.80231,-1.77046 -6,0.42714 l -2.22494,2.22484 -0.26015,143.1916 c -0.16832,92.64865 0.0942,145.1438 0.74376,148.72232 1.35581,7.46951 7.0484,18.72763 11.7053,23.14935 3.74646,3.55727 59.92117,36.00684 72.42305,41.83551 3.51342,1.63804 8.86304,3.63885 11.88804,4.44624 7.63174,2.03698 21.42857,2.00822 27.57186,-0.0575 z M 319,449.17076 C 312.22902,446.90705 308.01822,444.7521 286.60725,432.59314 277.31623,427.31691 269.40717,423 269.03156,423 c -0.37561,0 -1.65424,-1.03391 -2.8414,-2.29758 L 264.0317,418.40484 263.9749,304.45242 263.9181,190.5 l 2.59672,-2.25 c 1.4282,-1.2375 3.15765,-2.25 3.84322,-2.25 1.495,0 37.23413,20.34601 47.14198,26.83757 3.85,2.5225 10.84556,8.42847 15.54569,13.12439 21.8662,21.84663 36.51075,55.24306 43.07936,98.24118 2.63331,17.23763 3.1928,53.06855 1.03521,66.29686 -4.86771,29.84419 -15.60316,49.67705 -30.95589,57.18844 -7.26629,3.55506 -19.07929,4.19873 -27.20437,1.48232 z m 21.7729,-14.74488 c 3.37589,-1.68228 6.39089,-4.24333 8.7022,-7.39196 4.23161,-5.7646 8.89887,-15.61698 8.22722,-17.36728 -0.26452,-0.68932 -7.07113,-4.97395 -15.1258,-9.5214 l -14.64485,-8.26809 -20.97278,11.64568 c -11.53503,6.40512 -20.74571,12.01309 -20.46818,12.46215 0.92187,1.49161 31.61529,18.25608 35.84788,19.57978 6.73408,2.10603 12.65692,1.74011 18.43431,-1.13888 z M 300.04849,391.37888 321,379.75776 v -49.37888 c 0,-48.04555 0.054,-49.43288 2,-51.37888 2.70273,-2.70273 6.57245,-2.51846 9.54545,0.45455 L 335,281.90909 v 48.92748 48.92749 l 13.25,7.54317 c 9.07464,5.16616 13.46085,7.16759 13.91912,6.35129 1.60536,-2.85959 3.05989,-26.87799 2.43195,-40.15852 -2.00984,-42.50715 -11.5819,-76.25775 -29.08363,-102.54739 C 324.49906,234.40171 315.97575,227.54921 282.75,208.5291 L 278,205.80996 v 98.59502 C 278,358.63224 278.24682,403 278.54849,403 c 0.30167,0 9.97667,-5.2295 21.5,-11.62112 z m 120.68647,70.66472 c 17.10037,-9.88698 22.24132,-14.96466 28.76783,-28.41374 14.82853,-30.55696 18.12598,-84.96087 8.46305,-139.62986 -8.10151,-45.83504 -27.58811,-90.95031 -52.72732,-122.07399 -7.61147,-9.4234 -23.0739,-24.28893 -31.42935,-30.21608 -6.7505,-4.78863 -68.94384,-41.05024 -73.1479,-42.648613 -2.19892,-0.836031 -5.00395,0.473047 -22.31207,10.412833 -10.88832,6.253 -19.9236,11.74906 -20.07841,12.21349 -0.15481,0.46442 13.33343,8.70021 29.97387,18.30176 34.44458,19.87456 45.14734,27.48737 59.27208,42.15993 28.74232,29.85706 49.1667,68.49582 62.03572,117.3589 7.29951,27.71591 10.74287,55.77311 10.73755,87.49177 -0.005,30.75136 -4.02508,56.41363 -11.74855,75 -1.48558,3.575 -2.96661,7.13632 -3.29119,7.91404 -0.32458,0.77773 -0.17618,1.17685 0.32979,0.88694 0.50597,-0.2899 7.32567,-4.23073 15.1549,-8.75738 z M 135.40211,396.003 C 86.587749,388.84546 35.381628,312.08883 34.664528,245 c -0.135525,-12.67915 1.365597,-17.8574 6.705235,-23.13032 1.464981,-1.44667 12.266314,-8.17803 24.002962,-14.95856 l 21.33936,-12.32825 2.527079,-5.71772 c 2.999619,-6.78689 3.493627,-7.15803 29.045636,-21.82147 10.33165,-5.92897 19.02598,-11.02112 19.32074,-11.31589 0.97264,-0.97263 -2.78286,-14.10192 -6.07199,-21.22779 -7.54236,-16.34045 -19.54707,-27.5 -29.58268,-27.5 -5.644485,0 -9.37243,3.97562 -11.053736,11.78811 -1.64133,7.62674 -4.048336,12.25945 -8.316839,16.00725 C 69.244485,146.50435 47.059524,132.62387 38.527207,107.23263 34.205976,94.373119 34.364049,85.08631 39.160952,70 43.694058,55.743334 54.224931,41.988067 64.715848,36.620579 67.347132,35.274331 81.262568,27.457272 95.63904,19.249337 125.09804,2.4303569 129.56347,0.71078257 143.5,0.81872856 c 10.07097,0.0780051 18.02183,1.87234834 27.17764,6.13342044 24.17796,11.252324 49.93829,40.554665 64.94424,73.874 4.4361,9.849954 4.65469,11.950704 1.60485,15.423851 -1.8998,2.16349 -7.52594,2.299332 -9.24888,0.223313 -0.69687,-0.839678 -3.93203,-7.027178 -7.18924,-13.75 -15.35157,-31.685352 -37.17661,-55.459424 -59.20714,-64.49449 -7.38204,-3.02749 -21.83555,-4.156554 -29.27378,-2.286778 -2.64423,0.664689 -11.20366,4.858173 -19.02096,9.318852 l -14.213267,8.110325 6.789657,2.641668 c 9.54486,3.713642 16.31964,7.793 26.13688,15.738023 27.0741,21.910887 50.69634,63.741477 59.15307,104.749087 3.05895,14.83317 3.31259,42.82079 0.49844,55 -2.29531,9.93372 -8.02648,22.35733 -13.46104,29.17985 l -4.12607,5.17984 3.84024,8.32016 c 4.88334,10.58008 10.33876,27.44805 13.21544,40.86167 1.86227,8.68351 2.25162,13.68307 2.29412,29.45848 0.0494,18.3345 -0.56173,23.5859 -4.06381,34.92046 -0.56277,1.82141 -0.40365,1.80852 3.08528,-0.25 4.49314,-2.65102 8.70019,-2.7828 10.90934,-0.34172 1.71712,1.89739 2.19074,6.78024 0.86063,8.87277 -0.75517,1.18804 -34.11154,20.8942 -41.56111,24.55333 -4.24269,2.08395 -15.71405,4.77188 -19.64453,4.60304 -1.375,-0.0591 -4.79405,-0.44376 -7.59789,-0.85488 z M 153,380.78554 c 11.17385,-3.43088 19.39949,-13.77215 24.23031,-30.46234 3.23299,-11.16975 3.20402,-37.95488 -0.0574,-53.07443 -3.04678,-14.12449 -8.05774,-28.97962 -14.08745,-41.76259 C 160.28846,249.55653 158,244.08503 158,243.32728 c 0,-0.75775 2.67072,-4.24855 5.93493,-7.75733 6.87297,-7.38794 10.14053,-13.34867 13.29919,-24.26063 3.24018,-11.19357 3.19858,-37.94582 -0.0827,-53.16587 C 165.98418,106.34425 133.29801,60.48159 99.162549,48.7156 91.949575,46.229394 89.516918,45.837379 83.827702,46.24444 75.576529,46.834809 67.46634,50.634535 62.335425,56.313844 54.10614,65.422679 48.175442,84.289487 50.005946,95.536531 52.322054,109.76725 63.64922,125 71.915156,125 c 2.4722,0 3.397701,-1.67537 5.510552,-9.97535 3.151381,-12.37967 9.75293,-19.834523 19.374932,-21.879312 16.02037,-3.404517 34.42058,9.874262 46.21908,33.354662 11.07606,22.04266 12.38736,45.31164 3.36267,59.6703 -6.70996,10.67583 -20.13248,13.66546 -33.38239,7.43534 -6.63458,-3.11958 -7.43743,-3.16821 -10,-0.60564 -1.63686,1.63686 -2,3.33333 -2,9.34345 0,12.86335 6.61967,26.57796 15.87028,32.88001 8.66654,5.90414 12.24052,9.19775 17.62295,16.24046 22.55146,29.50772 23.8198,70.92468 2.50677,81.85734 -7.43511,3.81389 -14.91648,3.47131 -24.22059,-1.10909 -11.76477,-5.79178 -25.125196,-22.20393 -31.157651,-38.27455 -3.119612,-8.31072 -5.614612,-20.30602 -5.646205,-27.14546 -0.04959,-10.73628 -4.385827,-22.01685 -11.396457,-29.64753 -7.098533,-7.72636 -13.780924,-8.77141 -15.12752,-2.36577 -0.314622,1.49663 -0.746172,3.57887 -0.959002,4.62721 -0.696286,3.42971 1.481315,23.50802 3.62321,33.40738 5.947771,27.48927 19.832076,56.09773 37.552357,77.37622 8.032314,9.64519 14.808158,15.79993 24.124598,21.91323 14.65898,9.61899 27.14921,12.38502 39.20726,8.68264 z M 131.88571,320.3675 c 5.88763,-4.12386 7.92447,-19.0347 4.55803,-33.3675 -3.43772,-14.63629 -13.75859,-30.74385 -24.27492,-37.88535 C 100.98875,241.52241 93.206286,231.08157 89.017935,218.05578 87.770131,214.1751 86.622929,211 86.468599,211 c -0.15433,0 -4.163595,2.2854 -8.909477,5.07867 l -8.628876,5.07867 5.478128,5.91704 C 83.41138,236.7987 90,252.7204 90,264.75226 c 0,8.01727 2.768341,19.86046 6.565564,28.08802 9.700966,21.01937 26.225076,33.89766 35.320146,27.52722 z m -0.1025,-138.9282 c 2.25686,-1.58078 5.72918,-7.26024 4.92837,-8.06106 C 136.05201,172.71868 122,181.03647 122,182.08644 c 0,1.51523 7.39431,1.0261 9.78321,-0.64714 z"
       id="path302" />
  </g>
</svg>
