<?xml version="1.0" encoding="UTF-8" standalone="no"?>
<!-- Created with Inkscape (http://www.inkscape.org/) -->

<svg
   version="1.1"
   id="svg373"
   width="512"
   height="512"
   viewBox="0 0 512 512"
   sodipodi:docname="aleros.svg"
   inkscape:version="1.2.2 (732a01da63, 2022-12-09)"
   xml:space="preserve"
   xmlns:inkscape="http://www.inkscape.org/namespaces/inkscape"
   xmlns:sodipodi="http://sodipodi.sourceforge.net/DTD/sodipodi-0.dtd"
   xmlns="http://www.w3.org/2000/svg"
   xmlns:svg="http://www.w3.org/2000/svg"><defs
     id="defs377" /><sodipodi:namedview
     id="namedview375"
     pagecolor="#ffffff"
     bordercolor="#000000"
     borderopacity="0.25"
     inkscape:showpageshadow="2"
     inkscape:pageopacity="0.0"
     inkscape:pagecheckerboard="0"
     inkscape:deskcolor="#d1d1d1"
     showgrid="false"
     inkscape:zoom="0.85644531"
     inkscape:cx="141.28164"
     inkscape:cy="311.75371"
     inkscape:window-width="1920"
     inkscape:window-height="1027"
     inkscape:window-x="1912"
     inkscape:window-y="-8"
     inkscape:window-maximized="1"
     inkscape:current-layer="g379"
     showguides="true"><sodipodi:guide
       position="-477.5553,420.92588"
       orientation="0,-1"
       id="guide4857"
       inkscape:locked="false" /><sodipodi:guide
       position="85.236032,415.0878"
       orientation="1,0"
       id="guide4859"
       inkscape:locked="false" /><sodipodi:guide
       position="418.00684,293.65564"
       orientation="1,0"
       id="guide4861"
       inkscape:locked="false" /><sodipodi:guide
       position="446.02965,90.490308"
       orientation="0,-1"
       id="guide4863"
       inkscape:locked="false" /></sodipodi:namedview><g
     inkscape:groupmode="layer"
     inkscape:label="Image"
     id="g379"><ellipse
       style="fill:#aa0000;stroke-width:1.22329;fill-opacity:1"
       id="path589"
       cx="257.1785"
       cy="256.24875"
       rx="255.52724"
       ry="241.38741" /><path
       style="fill:#ffffff;stroke-width:2.19347"
       d="m 107.10965,378.05785 c 0.0507,-3.59605 4.16916,-7.7626 15.17683,-15.35429 14.76775,-10.18491 15.48078,-10.41898 31.73567,-10.41898 h 16.62851 v 7.67714 7.67715 h 30.70859 30.70861 v -7.67715 c 0,-6.71708 0.68256,-7.67714 5.45821,-7.67714 h 5.45822 l 0.57382,-86.09375 0.57384,-86.09376 8.22551,-0.68078 8.22552,-0.68076 v 86.7745 86.77455 h 5.48368 c 4.80476,0 5.48367,0.95048 5.48367,7.67714 v 7.67715 h 32.04533 32.0453 l -0.89625,-7.67715 -0.89627,-7.67714 h 16.77718 c 16.51093,0 17.00799,0.16537 31.32369,10.41898 10.47027,7.49936 14.55804,11.80197 14.5877,15.35429 l 0.0413,4.93532 H 251.80914 107.04003 l 0.0697,-4.93532 z m 67.92796,-19.19287 c 0,-2.41281 0.98706,-4.38694 2.19346,-4.38694 1.20641,0 2.11554,-5.18207 2.02031,-11.51573 -0.15202,-10.11317 -0.43384,-10.80402 -2.31337,-5.67233 -2.76312,7.54409 -8.05031,9.48369 -13.18498,4.83688 -4.92694,-4.45881 -5.17537,-11.46523 -0.77951,-21.98595 1.80961,-4.33102 3.29019,-12.74759 3.29019,-18.70351 0,-7.29195 0.7851,-10.34372 2.40364,-9.34339 2.85999,1.76756 0.99662,16.73888 -3.76043,30.21322 -4.16821,11.80647 -2.43139,19.5436 4.17617,18.60401 4.51573,-0.64213 4.85778,-1.83569 4.85778,-16.95088 0,-11.05397 0.87786,-16.55532 2.74183,-17.18218 1.61787,-0.54409 2.74184,-4.73776 2.74184,-10.23002 0,-9.09446 -0.15091,-9.28579 -6.5804,-8.34214 -6.25947,0.91869 -6.58043,0.5852 -6.58043,-6.838 0,-5.34281 1.78803,-9.74461 5.66991,-13.95815 4.79771,-5.20765 5.14472,-5.3338 2.25592,-0.82017 -2.51725,3.93312 -2.78366,6.09365 -1.01437,8.22553 1.74346,2.10071 1.72638,2.89132 -0.0625,2.89132 -1.35411,0 -2.46203,2.07971 -2.46203,4.62163 0,3.31312 0.98232,4.24467 3.46961,3.29019 1.90827,-0.73228 3.88239,-1.33141 4.38695,-1.33141 0.50451,0 0.91732,-4.39539 0.91732,-9.76753 0,-9.41848 0.29393,-9.84914 8.22551,-12.05185 10.38035,-2.88276 17.03806,-2.88276 27.4184,0 l 8.22551,2.28434 v 44.86305 c 0,28.44641 0.80267,44.86307 2.19348,44.86307 1.20641,0 2.19347,1.97413 2.19347,4.38694 0,4.14324 -1.46233,4.38695 -26.32166,4.38695 -24.85933,0 -26.32166,-0.24371 -26.32166,-4.38695 z m 4.38693,-41.01791 c 0,-5.97522 -0.80162,-9.43326 -1.90675,-8.22552 -1.77784,1.94291 -0.83791,18.53484 1.05001,18.53484 0.4712,0 0.85674,-4.63919 0.85674,-10.30932 z m 8.77388,-1.75477 c 0,-4.22244 -0.98706,-7.67716 -2.19346,-7.67716 -2.4323,0 -3.04184,11.58132 -0.73114,13.89198 2.52455,2.52458 2.9246,1.67445 2.9246,-6.21482 z m 29.61187,-31.80534 v -7.67715 l -16.9994,-0.64063 -16.9994,-0.64064 v 8.95842 8.95843 l 16.9994,-0.64066 16.9994,-0.64061 z m 59.1056,76.58038 c -0.81056,-1.31154 -0.37527,-3.48308 0.96729,-4.82564 1.63179,-1.63179 2.44105,-17.17503 2.44105,-46.88397 v -44.44291 l 9.32225,-2.51454 c 8.79029,-2.37104 27.70674,-1.62328 32.40594,1.281 1.17768,0.72783 2.14123,5.76512 2.14123,11.19396 0,6.02186 0.85528,9.34204 2.19347,8.51498 1.2064,-0.7456 2.19348,-0.31032 2.19348,0.96729 0,1.2776 0.98706,2.32292 2.19346,2.32292 1.20641,0 2.19347,-1.97412 2.19347,-4.38693 0,-2.41283 -1.10792,-4.38695 -2.46204,-4.38695 -1.78883,0 -1.80593,-0.79061 -0.0625,-2.89132 1.76853,-2.13097 1.50911,-4.29414 -0.98643,-8.22553 -1.8623,-2.9338 -0.33633,-1.89605 3.39106,2.30609 3.72738,4.20217 6.26626,8.97144 5.64194,10.59839 -0.6243,1.62696 -1.13512,4.47001 -1.13512,6.31788 0,2.46594 -1.70622,3.10934 -6.4135,2.41845 -6.15263,-0.903 -6.39692,-0.61333 -6.00644,7.1219 0.22386,4.43476 1.72597,9.65243 3.33803,11.59485 2.08266,2.50945 2.49692,6.68784 1.43121,14.43633 -1.95654,14.22578 0.001,20.39527 6.19399,19.51314 6.14151,-0.87491 7.2669,-9.4749 2.67733,-20.45932 -1.87774,-4.4941 -3.24815,-13.2326 -3.04537,-19.41891 0.32301,-9.85316 0.45891,-10.15992 1.09595,-2.47398 0.39997,4.82564 2.33749,14.36051 4.30563,21.1886 1.96813,6.82811 2.96407,14.86251 2.21318,17.8542 -2.37776,9.47381 -11.92532,9.97663 -16.33082,0.86008 -1.9955,-4.12938 -2.34404,-3.33797 -2.47156,5.61165 -0.0815,5.73045 0.8386,10.41899 2.04502,10.41899 1.2064,0 2.19346,1.97413 2.19346,4.38694 0,4.13132 -1.46231,4.38695 -25.09546,4.38695 -15.70517,0 -25.64691,-0.89229 -26.56923,-2.38459 z m 51.51051,-47.51688 c 0.0849,-1.50801 -0.83288,-2.74184 -2.03928,-2.74184 -1.20641,0 -2.12409,3.20795 -2.03929,7.12879 0.12925,5.97398 0.45953,6.41813 2.03929,2.74182 1.03683,-2.41281 1.95452,-5.62077 2.03928,-7.12877 z m -8.6197,1.6451 c 0,-3.61922 -0.98706,-6.58042 -2.19347,-6.58042 -1.2064,0 -2.19346,2.9612 -2.19346,6.58042 0,3.61923 0.98706,6.58041 2.19346,6.58041 1.20641,0 2.19347,-2.96118 2.19347,-6.58041 z m 0,-30.7086 v -8.77388 h -16.45102 -16.45104 v 8.77388 8.77389 h 16.45104 16.45102 z m -190.832,-104.5088 c -17.49293,-6.63799 -32.743031,-12.98324 -33.889126,-14.10059 -1.278942,-1.24688 59.677526,-2.03152 157.820256,-2.03152 87.94724,0 158.96634,0.8246 157.82026,1.83249 -1.14609,1.00786 -17.20825,7.42376 -35.69368,14.25756 l -33.60988,12.42507 h -38.2263 -38.2263 v -7.44247 c 0,-8.04679 -2.68095,-10.1053 -13.16083,-10.1053 -10.47988,0 -13.16083,2.05851 -13.16083,10.1053 v 7.44247 l -38.93412,-0.15706 -38.93411,-0.15704 z M 87.298753,149.38848 V 137.32439 H 251.8091 416.31944 v 12.06409 12.06409 H 251.8091 87.298753 Z"
       id="path3176" /></g></svg>
